<svg xmlns="http://www.w3.org/2000/svg" width="64" height="64" viewBox="0 0 64 64" fill="none">
  <path d="M8 8h20l8 8v34a2 2 0 0 1-2 2H8a2 2 0 0 1-2-2V10a2 2 0 0 1 2-2z" fill="rgba(30,58,95,0.15)" stroke="#161E4C" stroke-width="2.5" stroke-linecap="round" stroke-linejoin="round"/>
  <path d="M28 8v8h8" fill="rgba(30,58,95,0.08)" stroke="#161E4C" stroke-width="1.5" stroke-linecap="round" stroke-linejoin="round"/>
  <line x1="12" y1="24" x2="28" y2="24" fill="none" stroke="#161E4C" stroke-width="2.5" stroke-linecap="round" stroke-linejoin="round" opacity="0.5"/>
  <line x1="12" y1="30" x2="24" y2="30" fill="none" stroke="#161E4C" stroke-width="2.5" stroke-linecap="round" stroke-linejoin="round" opacity="0.5"/>
  <line x1="12" y1="36" x2="20" y2="36" fill="none" stroke="#161E4C" stroke-width="2.5" stroke-linecap="round" stroke-linejoin="round" opacity="0.5"/>
  <circle cx="46" cy="34" r="12" fill="rgba(30,58,95,0.08)" stroke="#161E4C" stroke-width="2.5" stroke-linecap="round" stroke-linejoin="round"/>
  <line x1="54.5" y1="42.5" x2="60" y2="50" fill="none" stroke="#161E4C" stroke-width="3.5" stroke-linecap="round" stroke-linejoin="round"/>
  <polyline points="40,35 44,39 52,29" fill="none" stroke="#161E4C" stroke-width="2.5" stroke-linecap="round" stroke-linejoin="round"/></svg>
