<svg width="78" height="78" viewBox="0 0 78 78" fill="none" xmlns="http://www.w3.org/2000/svg">
<g clip-path="url(#clip0_271_574)">
<path d="M29.3291 41.7412L27.636 45.3736C27.0574 46.615 27.9608 48.0303 29.3291 48.0303C30.6996 48.0303 31.5997 46.6128 31.0222 45.3736L29.3291 41.7412Z" fill="#FAA61A"/>
<path d="M48.917 41.7412L47.4481 44.8945C46.9449 45.9718 47.7291 47.2001 48.917 47.2001C50.107 47.2001 50.889 45.9707 50.387 44.8945L48.917 41.7412Z" fill="#FAA61A"/>
<path d="M62.0781 22.6827H58.5956V20.6182C58.5956 20.0141 58.106 19.5245 57.5019 19.5245H54.388C53.7839 19.5245 53.2942 20.0141 53.2942 20.6182V22.6827H48.0945V14.7344C48.0945 13.2272 46.8684 12 45.3602 12H32.6398C31.1316 12 29.9055 13.2272 29.9055 14.7344V22.6827H24.7058V20.6182C24.7058 20.0141 24.2161 19.5245 23.612 19.5245H20.4981C19.894 19.5245 19.4044 20.0141 19.4044 20.6182V22.6827H15.9219C13.2083 22.6827 11 24.8898 11 27.6045V61.3281C11 64.0417 13.2083 66.25 15.9219 66.25H62.0781C64.7917 66.25 67 64.0417 67 61.3281V27.6045C67 24.8898 64.7917 22.6827 62.0781 22.6827ZM33.1867 15.2812H44.8133V22.6827H33.1867V15.2812ZM48.917 51.3017C45.335 51.3017 42.9583 47.5797 44.4731 44.328L46.3423 40.3194H40.7642V54.7022H44.3189C45.2245 54.7022 45.9595 55.4361 45.9595 56.3428C45.9595 57.2484 45.2245 57.9834 44.3189 57.9834H33.9283C33.0216 57.9834 32.2877 57.2484 32.2877 56.3428C32.2877 55.4361 33.0216 54.7022 33.9283 54.7022H37.483V40.3194H31.9037L33.9961 44.807C35.5853 48.2173 33.097 52.1319 29.3291 52.1319C25.5677 52.1319 23.0706 48.2228 24.662 44.807L27.8427 37.9853C28.1106 37.4089 28.6936 37.0381 29.3291 37.0381H37.483V32.5898C37.483 31.6842 38.2169 30.9492 39.1236 30.9492C40.0292 30.9492 40.7642 31.6842 40.7642 32.5898V37.0381H48.917C49.5088 37.0381 50.0841 37.3619 50.3761 37.9306C50.4188 38.0127 50.1595 37.4603 53.3609 44.328C54.8747 47.5753 52.5045 51.3017 48.917 51.3017Z" fill="#FAA61A"/>
</g>
<defs>
<clipPath id="clip0_271_574">
<rect width="78" height="78" fill="white"/>
</clipPath>
</defs>
</svg>
