<svg width="78" height="78" viewBox="0 0 78 78" fill="none" xmlns="http://www.w3.org/2000/svg">
<g clip-path="url(#clip0_271_541)">
<g clip-path="url(#clip1_271_541)">
<path d="M14.5579 35.8463C13.7083 35.8463 13.0197 36.5351 13.0197 37.3846V59.978C13.0197 60.8276 13.7085 61.5163 14.5579 61.5163H23.8258V35.8463H14.5579Z" fill="#10284B"/>
<path d="M64.9804 44.3409C64.9804 42.3882 63.9311 40.6758 62.3669 39.738C62.9662 38.8726 63.3177 37.8227 63.3177 36.6927C63.3177 33.7359 60.9121 31.3302 57.9553 31.3302H46.6353C46.9822 29.7581 47.4567 27.3989 47.7871 24.9292C48.647 18.5022 48.0593 14.9378 45.938 13.7121C44.6154 12.948 43.1895 12.793 41.9228 13.2752C40.9442 13.648 39.6227 14.5644 38.8696 16.8135L35.8944 24.6034C34.3861 28.3285 29.7672 32.2391 26.9026 34.4015V62.197C32.2117 64.0572 37.7517 65.0001 43.4037 65.0001H55.7381C58.6949 65.0001 61.1005 62.5945 61.1005 59.6377C61.1005 58.6023 60.8054 57.6344 60.2951 56.8138C62.0827 55.9433 63.3175 54.1076 63.3175 51.9893C63.3175 50.8591 62.966 49.8095 62.3667 48.944C63.9311 48.0061 64.9804 46.2937 64.9804 44.3409Z" fill="#10284B"/>
</g>
</g>
<defs>
<clipPath id="clip0_271_541">
<rect width="78" height="78" fill="white"/>
</clipPath>
<clipPath id="clip1_271_541">
<rect width="52" height="52" fill="white" transform="translate(13 13)"/>
</clipPath>
</defs>
</svg>
