<svg width="78" height="78" viewBox="0 0 78 78" fill="none" xmlns="http://www.w3.org/2000/svg">
<g clip-path="url(#clip0_271_497)">
<path d="M45.7275 42.4368C45.7065 42.4572 45.6901 42.482 45.6796 42.5093C45.6691 42.5367 45.6646 42.566 45.6666 42.5953L46.5807 48.1772L46.995 50.6878C47.0162 50.8198 46.9999 50.9551 46.9482 51.0784C46.8964 51.2017 46.8112 51.308 46.7021 51.3854C46.5931 51.4627 46.4645 51.508 46.3311 51.5161C46.1976 51.5242 46.0645 51.4948 45.9469 51.4312L39.0853 47.6287C39.0585 47.6167 39.0294 47.6104 39 47.6104C38.9706 47.6104 38.9415 47.6167 38.9147 47.6287L32.0532 51.4312C31.9355 51.4948 31.8025 51.5242 31.669 51.5161C31.5355 51.508 31.407 51.4627 31.298 51.3854C31.1889 51.308 31.1037 51.2017 31.0519 51.0784C31.0001 50.9551 30.9839 50.8198 31.005 50.6878L31.4072 48.1772L32.3213 42.5953C32.3276 42.5669 32.3265 42.5374 32.3179 42.5096C32.3094 42.4818 32.2937 42.4567 32.2725 42.4368L26.6541 36.6722C26.5629 36.5789 26.4993 36.4623 26.4703 36.3352C26.4412 36.2081 26.4479 36.0754 26.4895 35.9518C26.5311 35.8283 26.6061 35.7186 26.7061 35.6349C26.8061 35.5513 26.9273 35.4969 27.0563 35.4778L31.59 34.7831H31.6022L34.7953 34.2956C34.8236 34.2906 34.8504 34.2792 34.8737 34.2624C34.8969 34.2455 34.916 34.2235 34.9294 34.1981L38.3541 26.8856C38.4134 26.7649 38.5054 26.6633 38.6196 26.5922C38.7338 26.5211 38.8656 26.4834 39.0001 26.4834C39.1346 26.4834 39.2664 26.5211 39.3805 26.5922C39.4947 26.6633 39.5867 26.7649 39.646 26.8856L43.0707 34.1981C43.0842 34.2235 43.1032 34.2455 43.1265 34.2624C43.1497 34.2792 43.1765 34.2906 43.2048 34.2956L46.3979 34.7831H46.4101L50.9439 35.4778C51.0728 35.4969 51.194 35.5513 51.294 35.6349C51.3941 35.7186 51.469 35.8283 51.5106 35.9518C51.5522 36.0754 51.5589 36.2081 51.5298 36.3352C51.5008 36.4623 51.4372 36.5789 51.346 36.6722L45.7275 42.4368Z" fill="#FFC564"/>
<path d="M62.4245 39.4265L56.672 43.5581C56.6496 43.5695 56.6308 43.587 56.6179 43.6085C56.605 43.6301 56.5984 43.6548 56.5988 43.68L56.5501 47.519L56.5013 50.895C56.5016 51.0124 56.4687 51.1275 56.4064 51.227C56.3441 51.3265 56.2549 51.4064 56.1491 51.4574C56.0433 51.5084 55.9253 51.5284 55.8086 51.5151C55.692 51.5019 55.5814 51.4559 55.4898 51.3825L50.1151 47.0437C50.0986 47.0254 50.0765 47.013 50.0522 47.0086C50.0279 47.0042 50.0029 47.008 49.981 47.0193L48.9207 47.385L48.2626 43.3265L53.0888 38.3784C53.495 37.9654 53.7792 37.4484 53.9101 36.8841C54.041 36.3199 54.0136 35.7305 53.8308 35.1809C53.648 34.6313 53.317 34.1429 52.8742 33.7694C52.4315 33.396 51.8942 33.1521 51.3216 33.0646L49.9201 32.8453L52.6623 28.9575C52.7302 28.8608 52.8243 28.7855 52.9334 28.7404C53.0426 28.6953 53.1624 28.6822 53.2787 28.7026C53.3951 28.7231 53.5032 28.7763 53.5904 28.8559C53.6777 28.9356 53.7404 29.0384 53.7713 29.1525L55.2216 34.5028L55.636 36.014C55.6417 36.0377 55.6538 36.0593 55.671 36.0765C55.6882 36.0937 55.7099 36.1058 55.7335 36.1115L62.2538 38.3175C62.3637 38.3543 62.4613 38.4207 62.536 38.5093C62.6106 38.598 62.6594 38.7055 62.677 38.82C62.6947 38.9345 62.6804 39.0517 62.6359 39.1587C62.5913 39.2657 62.5182 39.3583 62.4245 39.4265Z" fill="#FFC564"/>
<path d="M72.8935 41.084L67.1288 44.2406C67.1081 44.254 67.0908 44.2719 67.0781 44.293C67.0654 44.3142 67.0577 44.3379 67.0556 44.3624L66.1538 50.9924C66.1387 51.0995 66.094 51.2002 66.0248 51.2833C65.9556 51.3664 65.8646 51.4285 65.7621 51.4627C65.6595 51.4969 65.5494 51.5018 65.4442 51.4769C65.339 51.4519 65.2428 51.3981 65.1665 51.3215L60.7059 46.7146C60.6908 46.6981 60.6715 46.6859 60.65 46.6795C60.6285 46.673 60.6057 46.6725 60.584 46.6781L58.9996 47.0071L59.024 44.8621L63.8381 41.4009C64.2955 41.0727 64.6535 40.6246 64.8728 40.1061C65.0921 39.5876 65.1641 39.0186 65.081 38.4618C64.9978 37.905 64.7627 37.3819 64.4015 36.95C64.0403 36.5182 63.567 36.1943 63.0337 36.014L60.6815 35.2218L65.0934 30.3468C65.1672 30.2662 65.2623 30.208 65.3677 30.1792C65.4732 30.1504 65.5846 30.152 65.6892 30.1838C65.7938 30.2157 65.8872 30.2766 65.9586 30.3593C66.03 30.4421 66.0765 30.5434 66.0928 30.6515L67.0313 37.184C67.0335 37.2069 67.0414 37.2289 67.0541 37.248C67.0669 37.2671 67.0841 37.2828 67.1044 37.2937L72.8691 40.0603C72.965 40.1058 73.0464 40.177 73.1043 40.2661C73.1621 40.3551 73.194 40.4585 73.1966 40.5646C73.1991 40.6708 73.1721 40.7755 73.1186 40.8672C73.0651 40.9589 72.9871 41.034 72.8935 41.084Z" fill="#FFC564"/>
<path d="M18.976 44.8621L19.0004 47.0071L17.416 46.6781C17.3943 46.6725 17.3714 46.673 17.35 46.6795C17.3285 46.6859 17.3092 46.6981 17.2941 46.7146L12.8335 51.3215C12.7572 51.3981 12.661 51.4519 12.5558 51.4768C12.4506 51.5017 12.3406 51.4968 12.238 51.4627C12.1354 51.4285 12.0444 51.3664 11.9752 51.2833C11.906 51.2002 11.8614 51.0995 11.8463 50.9924L10.9444 44.3624C10.9423 44.3379 10.9347 44.3142 10.922 44.293C10.9093 44.2719 10.892 44.254 10.8713 44.2406L5.10661 41.084C5.01295 41.034 4.93501 40.9589 4.8815 40.8672C4.82798 40.7755 4.80098 40.6708 4.80351 40.5646C4.80603 40.4585 4.83799 40.3551 4.89581 40.2661C4.95363 40.177 5.03505 40.1058 5.13098 40.0603L10.8957 37.2937C10.9159 37.2828 10.9332 37.2671 10.9459 37.248C10.9587 37.2289 10.9665 37.2069 10.9688 37.184L11.9072 30.6515C11.9235 30.5434 11.97 30.4421 12.0414 30.3593C12.1128 30.2766 12.2062 30.2157 12.3108 30.1838C12.4154 30.152 12.5268 30.1504 12.6323 30.1792C12.7377 30.208 12.8328 30.2662 12.9066 30.3468L17.3185 35.2218L14.9663 36.014C14.4329 36.1943 13.9596 36.5182 13.5985 36.95C13.2373 37.3819 13.0022 37.905 12.919 38.4618C12.8359 39.0186 12.9079 39.5876 13.1272 40.1061C13.3465 40.6246 13.7045 41.0727 14.1619 41.4009L18.976 44.8621Z" fill="#FFC564"/>
<path d="M24.9114 38.3784L29.7376 43.3265L29.0795 47.385L28.0192 47.0193C27.9973 47.008 27.9722 47.0042 27.948 47.0086C27.9237 47.013 27.9016 47.0254 27.8851 47.0437L22.5104 51.3825C22.4188 51.4559 22.3082 51.5019 22.1916 51.5151C22.0749 51.5284 21.9568 51.5084 21.8511 51.4574C21.7453 51.4064 21.6561 51.3265 21.5938 51.227C21.5314 51.1275 21.4985 51.0124 21.4989 50.895L21.4501 47.519L21.4014 43.68C21.4018 43.6548 21.3952 43.6301 21.3823 43.6085C21.3693 43.587 21.3506 43.5695 21.3282 43.5581L15.5757 39.4265C15.482 39.3583 15.4089 39.2657 15.3643 39.1587C15.3198 39.0517 15.3055 38.9345 15.3231 38.82C15.3408 38.7055 15.3896 38.598 15.4642 38.5093C15.5389 38.4207 15.6365 38.3543 15.7464 38.3175L22.2667 36.1115C22.2903 36.1058 22.3119 36.0937 22.3291 36.0765C22.3464 36.0593 22.3585 36.0377 22.3642 36.014L22.7785 34.5028L24.2289 29.1525C24.2598 29.0384 24.3225 28.9356 24.4097 28.8559C24.497 28.7763 24.6051 28.7231 24.7214 28.7026C24.8378 28.6822 24.9576 28.6953 25.0667 28.7404C25.1759 28.7855 25.27 28.8608 25.3379 28.9575L28.0801 32.8453L26.6785 33.0646C26.106 33.1521 25.5687 33.396 25.1259 33.7694C24.6832 34.1429 24.3522 34.6313 24.1694 35.1809C23.9866 35.7305 23.9592 36.3199 24.0901 36.8841C24.221 37.4484 24.5052 37.9654 24.9114 38.3784Z" fill="#FFC564"/>
</g>
<defs>
<clipPath id="clip0_271_497">
<rect width="78" height="78" fill="white"/>
</clipPath>
</defs>
</svg>
