<svg width="327" height="172" viewBox="0 0 327 172" fill="none" xmlns="http://www.w3.org/2000/svg">
<g clip-path="url(#clip0_107_2)">
<path d="M306.106 21.2683H218.689V47.3242H220.534L214.456 65.2974L208.373 47.3242H210.35V21.2683H150.393L131.003 53.352L111.492 21.2683H77.8699V47.3242H83.322V56.0691C83.6427 55.7275 83.9949 55.4174 84.3735 55.1389C85.4828 54.3348 86.8288 53.8198 88.3062 53.7042C88.5217 53.6884 88.7425 53.6779 88.9634 53.6779C89.731 53.6779 90.467 53.783 91.161 53.9827C92.5595 54.3768 93.7793 55.1494 94.7204 56.1899H96.7183C101.019 56.3476 104.268 59.6795 104.273 63.9415C104.273 67.0054 102.607 69.5857 100.073 70.8628L104.542 82.0566C105.141 82.3089 105.703 82.6347 106.219 83.0236C107.481 83.9643 108.443 85.2834 108.942 86.8127V94.559C108.7 96.0778 108.348 97.4652 107.87 98.7423C107.06 100.923 105.903 102.773 104.379 104.344C102.034 107.014 98.5058 108.354 95.2777 109.016C92.7435 109.537 90.3934 109.637 88.9581 109.637C87.5228 109.637 85.3829 109.542 82.9802 109.079C81.6553 108.827 80.2673 108.465 78.9214 107.939C78.5691 107.797 78.2169 107.65 77.8699 107.482V116.905H119.505V90.9802H114.058V80.8111L131.019 108.554L147.832 80.8689V90.9802H142.512V116.905H184.152V90.9802H178.7V55.307L190.692 90.9802H187.795V116.905H242.022V90.9802H238.478L251.249 52.9894V90.9802H245.797V116.905H286.107V115.927H287.158L287.258 91.4216H280.565L280.602 82.682L286.249 82.7188H289.046H306.127L306.432 82.414C308.972 79.9019 311.653 77.29 314.245 74.7622C316.832 72.2449 319.503 69.6383 322.042 67.1315L322.352 66.8214V37.3338L306.106 21.2683ZM292.4 47.7026V56.4527L291.238 57.6036H281.201V46.5517H291.238L292.4 47.7026ZM82.9802 106.867C83.9844 107.077 84.9571 107.219 85.8351 107.308C87.1758 107.45 88.2956 107.477 88.9581 107.477C91.2819 107.477 99.0894 107.146 102.786 102.878C104.363 101.265 105.498 99.2888 106.219 96.8609C106.855 94.6957 107.165 92.1784 107.165 89.2249C107.165 88.074 106.813 87.0071 106.219 86.1137C105.456 84.9733 104.279 84.1272 102.906 83.7856L97.2072 69.5069C100.041 69.139 102.113 66.8372 102.107 63.9468C102.107 60.8672 99.7571 58.4655 96.6394 58.3551H96.5816L93.6478 58.3499C93.0485 57.4249 92.1862 56.6997 91.161 56.2793C90.4933 55.9902 89.752 55.8378 88.9634 55.8378C88.7425 55.8378 88.5217 55.8483 88.3062 55.8799C86.6605 56.0585 85.262 56.9309 84.3735 58.2132C84.3419 58.2553 84.3104 58.3026 84.2789 58.3499H83.322V90.9802H77.8699V105.054C78.2116 105.243 78.5586 105.422 78.9214 105.579C80.2305 106.179 81.6343 106.588 82.9802 106.867Z" fill="#10284B"/>
<path d="M327 119.548H183.742H3.59619L10.778 131.746L3.59619 144.605H183.742H327L319.823 131.746L327 119.548Z" fill="white"/>
<path d="M43.8166 124.746C42.9385 124.278 41.8976 124.047 40.6883 124.047H34.1111V140.107H37.9176V135.093H40.5832C41.8134 135.093 42.8702 134.862 43.764 134.405C44.6578 133.948 45.3413 133.307 45.825 132.487C46.3087 131.667 46.5452 130.705 46.5452 129.596C46.5452 128.488 46.3087 127.531 45.8407 126.695C45.3728 125.86 44.6946 125.213 43.8166 124.746ZM42.2971 130.9C42.0973 131.273 41.7924 131.562 41.3928 131.772C40.9932 131.982 40.4885 132.082 39.8944 132.082H37.9228V127.126H39.8839C40.478 127.126 40.9827 127.226 41.3876 127.426C41.7924 127.626 42.0973 127.915 42.2971 128.283C42.4969 128.65 42.5968 129.087 42.5968 129.591C42.5968 130.096 42.4969 130.521 42.2971 130.894V130.9Z" fill="#0E1D41"/>
<path d="M48.5063 140.102H59.6471V137.001H52.3128V133.506H59.0741V130.469H52.3128V127.147H59.6577V124.047H48.5063V140.102Z" fill="#0E1D41"/>
<path d="M71.6241 133.974C72.5179 133.569 73.2014 132.981 73.6851 132.203C74.1688 131.425 74.4054 130.485 74.4054 129.386C74.4054 128.288 74.1688 127.347 73.7008 126.554C73.2329 125.76 72.5547 125.14 71.6767 124.704C70.7987 124.267 69.7577 124.052 68.5484 124.052H61.9712V140.112H65.7777V134.584H67.8439L70.7934 140.112H74.9679L71.6188 133.985C71.6188 133.985 71.6188 133.985 71.6241 133.985V133.974ZM65.7777 127.132H67.7387C68.3329 127.132 68.8323 127.216 69.2372 127.384C69.642 127.552 69.9417 127.804 70.1467 128.135C70.3518 128.466 70.4517 128.882 70.4517 129.386C70.4517 129.891 70.3518 130.29 70.1467 130.616C69.9417 130.942 69.642 131.178 69.2424 131.336C68.8428 131.494 68.3434 131.572 67.7493 131.572H65.7777V127.132Z" fill="#0E1D41"/>
<path d="M87.854 132.345C87.4334 131.951 86.9182 131.609 86.3136 131.325C85.709 131.041 85.015 130.816 84.2368 130.653L82.8436 130.327C82.3704 130.216 81.9498 130.09 81.5923 129.938C81.2348 129.785 80.9561 129.596 80.7616 129.37C80.567 129.144 80.4724 128.866 80.4724 128.535C80.4724 128.235 80.5565 127.967 80.73 127.731C80.9035 127.494 81.1612 127.315 81.5082 127.179C81.8552 127.042 82.2758 126.979 82.7805 126.979C83.5428 126.979 84.1369 127.142 84.5575 127.463C84.9782 127.783 85.22 128.24 85.2673 128.818H88.9213C88.9056 127.825 88.6479 126.958 88.1432 126.207C87.6385 125.455 86.934 124.872 86.0192 124.451C85.1043 124.031 84.0265 123.821 82.7857 123.821C81.545 123.821 80.4934 124.026 79.5576 124.441C78.6217 124.856 77.8804 125.434 77.3442 126.18C76.8079 126.927 76.5345 127.799 76.5345 128.787C76.5345 129.996 76.9288 130.957 77.7227 131.677C78.5166 132.397 79.6049 132.912 80.9877 133.228L82.6911 133.627C83.28 133.758 83.7637 133.906 84.1475 134.069C84.5313 134.231 84.8152 134.426 85.0044 134.641C85.1937 134.857 85.2883 135.12 85.2883 135.43C85.2883 135.777 85.1885 136.076 84.9834 136.334C84.7784 136.591 84.4839 136.796 84.1054 136.938C83.7269 137.08 83.2694 137.153 82.7489 137.153C82.1654 137.153 81.6606 137.064 81.2242 136.891C80.7879 136.717 80.4461 136.449 80.199 136.097C79.9519 135.745 79.81 135.309 79.7732 134.794H76.1191C76.1402 136.029 76.4293 137.059 76.9814 137.879C77.5334 138.698 78.3063 139.308 79.3 139.713C80.2937 140.117 81.4556 140.317 82.791 140.317C84.1264 140.317 85.2568 140.123 86.2032 139.734C87.1495 139.345 87.8751 138.788 88.3798 138.057C88.8845 137.327 89.1422 136.454 89.1422 135.445C89.1422 134.804 89.0317 134.226 88.8109 133.711C88.5901 133.196 88.2694 132.739 87.8488 132.345H87.854Z" fill="#0E1D41"/>
<path d="M102.349 124.788C101.198 124.147 99.8992 123.826 98.4639 123.826C97.0285 123.826 95.7194 124.147 94.568 124.788C93.4166 125.429 92.5018 126.359 91.8235 127.589C91.1453 128.819 90.8088 130.316 90.8088 132.082C90.8088 133.848 91.1453 135.325 91.8235 136.554C92.5018 137.784 93.4113 138.72 94.568 139.356C95.7247 139.991 97.0233 140.317 98.4639 140.317C99.9044 140.317 101.198 140.002 102.349 139.366C103.501 138.73 104.415 137.8 105.088 136.57C105.761 135.34 106.098 133.848 106.098 132.087C106.098 130.327 105.761 128.824 105.088 127.594C104.415 126.364 103.506 125.429 102.349 124.793V124.788ZM101.76 134.762C101.461 135.493 101.03 136.045 100.467 136.418C99.9044 136.791 99.2367 136.98 98.4639 136.98C97.691 136.98 97.0075 136.791 96.4502 136.413C95.8929 136.034 95.4565 135.482 95.1569 134.757C94.8572 134.032 94.7047 133.138 94.7047 132.082C94.7047 131.026 94.8572 130.122 95.1569 129.391C95.4565 128.661 95.8877 128.109 96.4502 127.731C97.0128 127.352 97.6805 127.163 98.4639 127.163C99.2472 127.163 99.9097 127.352 100.467 127.725C101.024 128.099 101.461 128.65 101.76 129.386C102.06 130.122 102.213 131.015 102.213 132.082C102.213 133.149 102.06 134.032 101.76 134.762Z" fill="#0E1D41"/>
<path d="M118.742 130.879C118.742 131.346 118.758 131.919 118.795 132.597C118.832 133.275 118.874 133.974 118.921 134.694C118.937 134.957 118.953 135.204 118.974 135.451C118.842 135.114 118.711 134.794 118.585 134.5C118.311 133.874 118.038 133.307 117.759 132.792C117.48 132.277 117.202 131.783 116.913 131.299L112.428 124.047H108.243V140.107H112.144V133.459C112.144 133.054 112.128 132.55 112.102 131.946C112.076 131.341 112.034 130.668 111.986 129.943C111.96 129.57 111.939 129.176 111.913 128.798C112.107 129.213 112.286 129.602 112.449 129.948C112.749 130.59 113.043 131.178 113.343 131.725C113.642 132.271 113.974 132.849 114.342 133.459L118.448 140.107H122.643V124.047H118.742V130.879Z" fill="#0E1D41"/>
<path d="M129.762 124.047L124.405 140.107H128.632L129.683 136.691H135.03L136.119 140.107H140.388L134.867 124.047H129.768H129.762ZM130.577 133.78L130.787 133.091C131.124 131.93 131.445 130.684 131.75 129.365C131.923 128.619 132.097 127.846 132.275 127.069C132.465 127.846 132.654 128.614 132.843 129.355C133.18 130.674 133.527 131.919 133.884 133.091L134.105 133.78H130.577Z" fill="#0E1D41"/>
<path d="M145.945 124.047H142.138V140.102H152.664V137.001H145.945V124.047Z" fill="#0E1D41"/>
<path d="M163.264 124.047H159.457V140.107H163.264V124.047Z" fill="#0E1D41"/>
<path d="M176.265 130.879C176.265 131.346 176.281 131.919 176.318 132.597C176.355 133.275 176.397 133.974 176.444 134.694C176.46 134.957 176.476 135.204 176.497 135.451C176.365 135.114 176.234 134.794 176.108 134.5C175.834 133.874 175.561 133.307 175.282 132.792C175.004 132.277 174.725 131.783 174.436 131.299L169.951 124.047H165.766V140.107H169.667V133.459C169.667 133.054 169.651 132.55 169.625 131.946C169.599 131.341 169.557 130.668 169.515 129.943C169.488 129.57 169.467 129.181 169.441 128.798C169.636 129.213 169.814 129.602 169.977 129.948C170.277 130.59 170.572 131.178 170.871 131.725C171.171 132.271 171.502 132.849 171.87 133.459L175.976 140.107H180.172V124.047H176.271V130.879H176.265Z" fill="#0E1D41"/>
<path d="M189.441 135.23C189.441 135.929 189.283 136.449 188.962 136.791C188.642 137.138 188.2 137.306 187.632 137.306C187.064 137.306 186.617 137.133 186.297 136.791C185.976 136.449 185.813 135.934 185.813 135.251V134.216H182.007V135.188C182.007 136.833 182.501 138.099 183.494 138.988C184.488 139.876 185.866 140.317 187.637 140.317C189.409 140.317 190.755 139.871 191.733 138.982C192.711 138.094 193.2 136.817 193.2 135.167V124.047H189.446V135.235L189.441 135.23Z" fill="#0E1D41"/>
<path d="M205.44 134.09C205.44 134.652 205.314 135.151 205.066 135.587C204.819 136.024 204.467 136.37 204.02 136.617C203.573 136.864 203.053 136.991 202.464 136.991C201.875 136.991 201.36 136.864 200.918 136.617C200.477 136.37 200.13 136.029 199.877 135.587C199.625 135.146 199.499 134.652 199.499 134.09V124.047H195.692V134.405C195.692 135.598 195.976 136.639 196.539 137.527C197.101 138.415 197.895 139.098 198.91 139.587C199.924 140.075 201.113 140.312 202.464 140.312C203.815 140.312 204.998 140.07 206.018 139.587C207.033 139.103 207.827 138.415 208.394 137.527C208.962 136.639 209.246 135.598 209.246 134.405V124.047H205.44V134.09Z" fill="#0E1D41"/>
<path d="M221.397 133.974C222.29 133.569 222.974 132.981 223.458 132.203C223.941 131.425 224.178 130.485 224.178 129.386C224.178 128.288 223.941 127.347 223.473 126.554C223 125.755 222.327 125.14 221.449 124.704C220.571 124.267 219.53 124.052 218.321 124.052H211.744V140.112H215.55V134.584H217.616L220.566 140.112H224.74L221.391 133.985C221.391 133.985 221.391 133.985 221.397 133.985V133.974ZM215.55 127.132H217.511C218.105 127.132 218.605 127.216 219.01 127.384C219.414 127.552 219.714 127.804 219.919 128.135C220.124 128.466 220.224 128.882 220.224 129.386C220.224 129.891 220.124 130.29 219.919 130.616C219.714 130.942 219.414 131.178 219.015 131.336C218.615 131.494 218.116 131.572 217.522 131.572H215.55V127.132Z" fill="#0E1D41"/>
<path d="M233.678 128.971C233.441 129.439 233.231 129.912 233.047 130.395C232.968 130.595 232.895 130.816 232.816 131.042C232.737 130.821 232.658 130.6 232.574 130.406C232.379 129.922 232.159 129.444 231.917 128.971L229.393 124.047H224.929L230.902 134.284V140.102H234.687V134.284L240.518 124.047H236.075L233.673 128.971H233.678Z" fill="#0E1D41"/>
<path d="M250.918 124.047H247.111V140.102H257.637V137.001H250.918V124.047Z" fill="#0E1D41"/>
<path d="M264.214 124.047L258.857 140.107H263.084L264.135 136.691H269.482L270.571 140.107H274.84L269.319 124.047H264.219H264.214ZM265.029 133.78L265.239 133.091C265.576 131.93 265.897 130.684 266.202 129.365C266.375 128.619 266.549 127.846 266.727 127.069C266.917 127.846 267.106 128.608 267.295 129.355C267.626 130.674 267.973 131.919 268.336 133.091L268.557 133.78H265.029Z" fill="#0E1D41"/>
<path d="M292.269 124.047L290.686 131.147C290.534 131.867 290.392 132.644 290.26 133.48C290.129 134.316 290.002 135.157 289.882 135.992C289.871 136.05 289.866 136.102 289.855 136.16C289.845 136.102 289.834 136.05 289.829 135.992C289.698 135.157 289.556 134.316 289.414 133.48C289.272 132.644 289.114 131.867 288.94 131.147L287.248 124.047H283.378L281.674 131.147C281.501 131.867 281.343 132.644 281.201 133.48C281.059 134.316 280.923 135.157 280.791 135.992C280.781 136.06 280.77 136.129 280.76 136.197C280.749 136.129 280.739 136.06 280.728 135.992C280.607 135.157 280.481 134.316 280.355 133.48C280.229 132.644 280.087 131.867 279.929 131.147L278.346 124.047H274.13L278.42 140.107H282.742L284.619 132.692C284.887 131.641 285.087 130.532 285.223 129.36C285.244 129.171 285.276 128.987 285.302 128.803C285.329 129.003 285.365 129.202 285.392 129.402C285.555 130.584 285.76 131.683 286.012 132.697L287.889 140.112H292.2L296.49 124.052H292.274L292.269 124.047Z" fill="#0E1D41"/>
<path d="M305.675 22.3193H219.74V46.2731H222.001C219.488 53.7094 216.969 61.1404 214.456 68.5767C211.938 61.1404 209.42 53.7094 206.906 46.2731H209.299V22.3193H150.987C144.326 33.3397 137.664 44.3602 131.003 55.3806C124.305 44.3602 117.601 33.3397 110.898 22.3193H78.9214V46.2731H84.3735V55.1388C85.4828 54.3348 86.8288 53.8197 88.3062 53.7041C88.5217 53.6884 88.7425 53.6778 88.9634 53.6778C89.731 53.6778 90.467 53.7829 91.161 53.9827C92.5595 54.3768 93.7793 55.1493 94.7204 56.1899H96.7183C101.019 56.3475 104.268 59.6794 104.273 63.9415C104.273 67.0053 102.607 69.5857 100.073 70.8627L104.542 82.0566C105.141 82.3088 105.703 82.6347 106.219 83.0236C107.481 83.9643 108.443 85.2833 108.942 86.8126V94.559C108.7 96.0778 108.348 97.4652 107.87 98.7422C107.06 100.923 105.903 102.773 104.379 104.344C102.034 107.014 98.5058 108.354 95.2777 109.016C92.7435 109.537 90.3934 109.637 88.9581 109.637C87.5228 109.637 85.3829 109.542 82.9802 109.079C81.6553 108.827 80.2673 108.465 78.9214 107.939V115.854H118.453V92.0312H113.006V77.0798C119.005 86.8967 125.009 96.7137 131.013 106.536C136.97 96.7294 142.927 86.923 148.884 77.1166V92.0312H143.563V115.854H183.1V92.0312H177.648V48.8797C182.48 63.2635 187.317 77.6474 192.154 92.0312H188.847V115.854H240.97V92.0312H237.017C242.111 76.8748 247.206 61.7185 252.3 46.5621V92.0312H246.848V115.854H286.107L286.206 92.4726H279.508L279.556 81.6256L286.249 81.6677H289.046H305.696C310.77 76.6436 316.222 71.404 321.301 66.38V37.7752C316.091 32.625 310.886 27.4696 305.675 22.3193ZM293.451 56.8941C292.857 57.4774 292.263 58.066 291.669 58.6546H280.15V45.5006H291.669C292.263 46.0892 292.857 46.6778 293.451 47.2611V56.8941ZM85.8351 107.308C87.1758 107.45 88.2956 107.477 88.9581 107.477C91.2819 107.477 99.0894 107.145 102.786 102.878C104.363 101.265 105.498 99.2888 106.219 96.8608C106.855 94.6956 107.165 92.1783 107.165 89.2248C107.165 88.0739 106.813 87.0071 106.219 86.1137C105.456 84.9733 104.279 84.1272 102.906 83.7856L97.2072 69.5069C100.041 69.139 102.113 66.8372 102.107 63.9467C102.107 60.8671 99.7571 58.4654 96.6394 58.3551H96.5816L93.6478 58.3498C93.0485 57.4249 92.1862 56.6996 91.161 56.2792C90.4933 55.9902 89.752 55.8378 88.9634 55.8378C88.7425 55.8378 88.5217 55.8483 88.3062 55.8798C86.6605 56.0585 85.262 56.9309 84.3735 58.2132V92.0312H78.9214V105.579C80.2305 106.179 81.6343 106.588 82.9802 106.867C83.9844 107.077 84.9571 107.219 85.8351 107.308Z" fill="url(#paint0_linear_107_2)"/>
<path d="M303.998 26.2083H250.912V26.3396H223.799V42.258H227.174C222.937 54.3242 218.694 66.3904 214.456 78.4619C210.256 66.3904 206.06 54.3242 201.864 42.258H205.24V26.3396H152.559C145.372 38.2324 138.19 50.1305 131.008 62.0285C123.784 50.1305 116.555 38.2324 109.331 26.3396H82.9802V42.258H88.3061V53.7041C88.5217 53.6883 88.7425 53.6778 88.9633 53.6778C89.731 53.6778 90.467 53.7829 91.161 53.9826C92.5595 54.3768 93.7793 55.1493 94.7204 56.1899H96.7183C101.019 56.3475 104.268 59.6794 104.273 63.9415C104.273 67.0053 102.607 69.5857 100.073 70.8627L104.542 82.0566C105.141 82.3088 105.703 82.6346 106.219 83.0235C107.481 83.9642 108.443 85.2833 108.942 86.8126V63.437C116.297 75.6346 123.653 87.8322 131.008 100.03C138.321 87.4065 145.635 74.7779 152.948 62.1547V95.9201H147.496V111.838H179.036V95.9201H173.584V42.258H178.757C184.904 60.1471 191.044 78.031 197.19 95.9201H192.906V111.838H236.911V95.9201H231.848C238.037 78.031 244.225 60.1471 250.408 42.258H256.233V95.9201H250.912V111.838H282.321V95.9201H276.869V77.8208H304.261C308.588 73.4956 312.915 69.1758 317.242 64.8506V39.3045C312.826 34.9373 308.414 30.5754 303.998 26.2083ZM293.451 56.8941C292.857 57.4774 292.263 58.066 291.669 58.6546H280.15V45.5005H291.669C292.263 46.0891 292.857 46.6777 293.451 47.2611V56.8941ZM102.906 83.7856L97.2072 69.5068C100.041 69.139 102.113 66.8371 102.107 63.9467C102.107 60.8671 99.7571 58.4654 96.6394 58.3551H96.5816L93.6478 58.3498C93.0485 57.4249 92.1862 56.6996 91.161 56.2792C90.4933 55.9902 89.752 55.8378 88.9633 55.8378C88.7425 55.8378 88.5217 55.8483 88.3061 55.8798V95.9201H82.9802V106.867C83.9844 107.077 84.9571 107.219 85.8351 107.308C87.1758 107.45 88.2956 107.477 88.9581 107.477C91.2819 107.477 99.0894 107.145 102.786 102.878C104.363 101.265 105.498 99.2888 106.219 96.8608C106.855 94.6956 107.165 92.1783 107.165 89.2248C107.165 88.0739 106.813 87.0071 106.219 86.1137C105.456 84.9733 104.279 84.1272 102.906 83.7856ZM108.942 95.9201V94.559C108.7 96.0778 108.348 97.4652 107.87 98.7422C107.06 100.923 105.903 102.773 104.379 104.344C102.034 107.014 98.5058 108.354 95.2777 109.016C92.7435 109.537 90.3934 109.636 88.9581 109.636C87.5228 109.636 85.3829 109.542 82.9802 109.079V111.838H114.394V95.9201H108.942Z" fill="url(#paint1_linear_107_2)"/>
<path d="M107.87 98.7422C107.06 100.923 105.903 102.773 104.379 104.344C102.034 107.014 98.506 108.354 95.2778 109.016H111.671V98.7422H107.87ZM102.907 83.7856L97.2073 69.5068C100.041 69.139 102.113 66.8372 102.107 63.9467C102.107 60.8671 99.7573 58.4654 96.6395 58.3551H96.5817L93.648 58.3498C93.0486 57.4249 92.1864 56.6996 91.1611 56.2792V98.7422H85.8352V107.308C87.1759 107.45 88.2958 107.477 88.9582 107.477C91.2821 107.477 99.0895 107.145 102.786 102.878C104.363 101.265 105.499 99.2888 106.219 96.8608V86.1137C105.456 84.9733 104.279 84.1272 102.907 83.7856ZM302.442 29.1617H226.654V39.4306H231.591C225.876 56.337 220.166 73.2381 214.456 90.1445C208.784 73.2381 203.116 56.337 197.448 39.4306H202.511V29.1617H154.079C146.387 41.6326 138.7 54.1035 131.008 66.5744C123.274 54.1035 115.546 41.6326 107.812 29.1617H85.8352V39.4306H91.1611V53.9826C92.5596 54.3768 93.7794 55.1493 94.7205 56.1899H96.7184C101.019 56.3475 104.268 59.6794 104.274 63.9415C104.274 67.0053 102.607 69.5857 100.073 70.8627L104.542 82.0566C105.141 82.3088 105.704 82.6346 106.219 83.0235V53.5517C114.484 67.205 122.743 80.8583 131.008 94.5064C139.273 80.8583 147.538 67.205 155.803 53.5517V98.7422H150.351V109.016H176.313V98.7422H170.729V39.4306H181.486C188.148 59.2012 194.809 78.9717 201.476 98.7422H195.634V109.016H234.057V98.7422H227.564C234.23 78.9717 240.892 59.2012 247.553 39.4306H259.088V98.7422H253.767V109.016H279.598V98.7422H274.146V75.1248H302.442C306.422 71.1413 310.402 67.163 314.382 63.1847V40.9705C310.402 37.0342 306.422 33.098 302.442 29.1617ZM293.452 56.8941C292.857 57.4774 292.263 58.066 291.669 58.6546H280.15V45.5005H291.669C292.263 46.0891 292.857 46.6777 293.452 47.2611V56.8941Z" fill="#FEFEFE"/>
<path d="M293.877 39.4307H274.146V64.7193H293.746C295.649 62.8379 297.552 60.9512 299.455 59.0698V44.9488C297.594 43.1094 295.733 41.27 293.872 39.4307H293.877ZM293.451 56.8888C292.857 57.4774 292.263 58.066 291.669 58.6494C289.75 58.6494 287.831 58.6494 285.912 58.6494C283.993 58.6494 282.074 58.6494 280.155 58.6494C280.155 54.2664 280.155 49.8782 280.155 45.4953H291.674C292.268 46.0839 292.862 46.6725 293.457 47.2611V56.8888H293.451Z" fill="url(#paint2_linear_107_2)"/>
<path d="M291.669 45.5005C292.263 46.0891 292.857 46.6777 293.451 47.2663V56.8941C292.857 57.4827 292.263 58.0713 291.669 58.6546C289.75 58.6546 287.831 58.6546 285.912 58.6546C283.993 58.6546 282.074 58.6546 280.155 58.6546C280.155 54.2717 280.155 49.8835 280.155 45.5005H291.674M292.863 42.6206H277.269V45.5005V58.6546V61.5345H280.155H285.912H291.669H292.857L293.698 60.6989L295.481 58.9384L296.338 58.0923V46.0629L295.481 45.2167L294.587 44.3338L293.693 43.451L292.852 42.6154L292.863 42.6206Z" fill="url(#paint3_linear_107_2)"/>
<path d="M107.165 89.2248C107.165 92.1783 106.855 94.6956 106.219 96.8608C105.498 99.2888 104.363 101.265 102.786 102.878C99.0895 107.145 91.282 107.477 88.9581 107.477C88.2957 107.477 87.1758 107.45 85.8351 107.308C84.9571 107.219 83.9845 107.077 82.9803 106.867C81.6343 106.588 80.2306 106.178 78.9214 105.579C78.5586 105.422 78.2116 105.243 77.8699 105.054C76.8394 104.476 75.8983 103.761 75.1307 102.878C72.1444 99.8248 70.7564 95.4839 70.7564 89.2248C70.7564 88.5206 70.8878 87.8479 71.1297 87.2225C67.6965 90.134 63.7481 92.1205 59.4789 93.077V105.085H67.2917C70.7143 105.085 73.4535 108.028 73.1276 111.513C72.8437 114.55 70.1728 116.81 67.1182 116.81H54.4054C54.1425 116.842 53.8796 116.863 53.6167 116.863C53.3538 116.863 53.0857 116.842 52.8281 116.81H39.9365C36.5191 116.81 33.7746 113.867 34.1059 110.383C34.3898 107.345 37.0606 105.085 40.1153 105.085H47.7545V93.0875C43.4854 92.1258 39.4686 90.1025 36.0249 87.2015C36.2667 87.8269 36.4087 88.5101 36.4087 89.2248C36.4087 95.4787 35.0154 99.8248 32.0291 102.878C28.3278 107.145 20.5256 107.477 18.2017 107.477C15.8779 107.477 8.08089 107.145 4.37956 102.878C1.39326 99.8301 0 95.4839 0 89.2248C0 86.5972 1.81912 84.3847 4.26389 83.7856L9.9631 69.5069C7.12927 69.139 5.05778 66.8424 5.06304 63.9467C5.06304 60.8724 7.41318 58.4654 10.5257 58.3551H10.6413L13.5225 58.3498C14.5162 56.8205 16.2196 55.8378 18.207 55.8378C20.1943 55.8378 21.8978 56.8205 22.8862 58.3498H26.9976C28.0281 57.4459 29.3793 56.8941 30.8514 56.8941C31.9187 56.8941 32.9177 57.1831 33.7799 57.6824V38.5583H33.7484L33.7799 35.2895C33.8745 24.4372 42.7651 15.6083 53.601 15.6083C58.9006 15.6083 63.8795 17.6736 67.6229 21.4312C71.319 25.1362 73.3799 30.0604 73.422 35.2895L73.4483 38.5583H73.4273V57.6561C74.279 57.1726 75.2569 56.8941 76.3032 56.8941H76.5871C77.0024 56.8941 77.4178 56.9204 77.8278 56.9677L77.9961 56.9834C78.8846 57.2199 79.4892 57.7612 80.1622 58.3498H84.2789C84.3104 58.3025 84.342 58.2552 84.3735 58.2132C85.2621 56.9309 86.6606 56.0585 88.3062 55.8798C88.5218 55.8483 88.7426 55.8378 88.9634 55.8378C89.752 55.8378 90.4933 55.9902 91.161 56.2792C92.1863 56.6996 93.0485 57.4249 93.6479 58.3498H96.6394C99.7572 58.4654 102.107 60.8671 102.107 63.9467C102.113 66.8372 100.041 69.139 97.2073 69.5069L102.906 83.7856C104.279 84.1272 105.456 84.9733 106.219 86.1137C106.813 87.0071 107.165 88.0739 107.165 89.2248Z" fill="white"/>
<path d="M109.326 89.2248C109.326 91.1588 109.2 92.9298 108.942 94.559V86.8126C109.189 87.5746 109.326 88.384 109.326 89.2248Z" fill="white"/>
<path d="M106.219 86.1137C105.456 84.9733 104.279 84.1272 102.906 83.7856L97.2073 69.5069C100.041 69.139 102.113 66.8372 102.107 63.9467C102.107 60.8671 99.7572 58.4654 96.6394 58.3551H96.5816L93.6479 58.3498C93.0485 57.4249 92.1863 56.6996 91.161 56.2792C90.4933 55.9902 89.752 55.8378 88.9634 55.8378C88.7426 55.8378 88.5218 55.8483 88.3062 55.8798C86.6606 56.0585 85.2621 56.9309 84.3735 58.2132C84.342 58.2552 84.3104 58.3025 84.2789 58.3498H80.1622C79.4892 57.7612 78.8846 57.2199 77.9961 56.9834L77.8278 56.9677C77.4178 56.9204 77.0024 56.8941 76.5871 56.8941H76.3032C75.2569 56.8941 74.279 57.1726 73.4273 57.6561V38.5583H73.4483L73.422 35.2895C73.3799 30.0604 71.319 25.1362 67.6229 21.4312C63.8795 17.6736 58.9006 15.6083 53.601 15.6083C42.7651 15.6083 33.8745 24.4372 33.7799 35.2895L33.7484 38.5583H33.7799V57.6824C32.9177 57.1831 31.9187 56.8941 30.8514 56.8941C29.3793 56.8941 28.0281 57.4459 26.9976 58.3498H22.8862C21.8978 56.8205 20.1891 55.8378 18.207 55.8378C16.2249 55.8378 14.5162 56.8205 13.5225 58.3498H10.5257C7.41318 58.4654 5.06304 60.8724 5.06304 63.9467C5.05778 66.8424 7.12927 69.139 9.9631 69.5069L4.26389 83.7856C1.81912 84.3847 0 86.5972 0 89.2248C0 95.4839 1.39326 99.8301 4.37956 102.878C8.08089 107.145 15.8831 107.477 18.2017 107.477C20.5203 107.477 28.3278 107.145 32.0291 102.878C35.0154 99.8248 36.4087 95.4787 36.4087 89.2248C36.4087 88.5101 36.2667 87.8269 36.0249 87.2015C39.4686 90.1025 43.4854 92.1258 47.7545 93.0875V105.085H40.1153C37.0606 105.085 34.3898 107.345 34.1059 110.383C33.7746 113.867 36.5191 116.81 39.9365 116.81H52.8281C53.0857 116.842 53.3538 116.863 53.6167 116.863C53.8796 116.863 54.1425 116.842 54.4054 116.81H67.1182C70.1728 116.81 72.8437 114.55 73.1276 111.513C73.4535 108.028 70.7143 105.085 67.2917 105.085H59.4789V93.077C63.7481 92.1205 67.6965 90.134 71.1297 87.2225C70.8878 87.8479 70.7564 88.5206 70.7564 89.2248C70.7564 95.4839 72.1444 99.8248 75.1307 102.878C75.8983 103.761 76.8394 104.476 77.8699 105.054C78.2116 105.243 78.5586 105.422 78.9214 105.579C80.2306 106.178 81.6343 106.588 82.9803 106.867C83.9845 107.077 84.9571 107.219 85.8351 107.308C87.1758 107.45 88.2957 107.477 88.9581 107.477C91.282 107.477 99.0895 107.145 102.786 102.878C104.363 101.265 105.498 99.2888 106.219 96.8608C106.855 94.6956 107.165 92.1783 107.165 89.2248C107.165 88.0739 106.813 87.0071 106.219 86.1137ZM16.3879 83.6227L18.2122 79.0558L20.0314 83.6227H16.3879ZM32.1553 83.7856L31.7294 82.724C32.0659 83.1549 32.4077 83.5701 32.7652 83.98C32.5654 83.9064 32.3656 83.8381 32.1553 83.7856ZM87.139 83.6227L88.3062 80.6954L88.9634 79.0505L90.7878 83.6227H87.139ZM75.4514 82.703L75.0203 83.7856C74.81 83.8381 74.605 83.9012 74.4052 83.98C74.7627 83.5648 75.1149 83.1392 75.4514 82.703Z" fill="#12284B"/>
<path d="M62.0602 43.7611V47.5607H70.1885V52.2064H62.0602V56.006H70.1885V60.6569H62.0602V64.4565H70.1832C70.1043 73.564 62.7122 80.9214 53.6061 80.9214C44.5 80.9214 37.1025 73.564 37.0237 64.4565H45.1466V60.6569H37.0237V56.006H45.1466V52.2064H37.0237V47.5607H45.1466V43.7611H37.0237V39.1154H45.1466V35.3158H37.0237C37.1025 26.2083 44.4947 18.8508 53.6061 18.8508C58.1854 18.8508 62.3284 20.7112 65.3305 23.7173C68.2957 26.6918 70.1464 30.7857 70.1832 35.3158H62.0602V39.1154H70.1885V43.7611H62.0602Z" fill="url(#paint4_radial_107_2)"/>
<path d="M101.571 86.8652H100.64L92.4332 66.3116H96.5183C99.6413 66.1908 99.6361 61.7027 96.5183 61.5924H91.3081V61.4242C91.1976 58.292 86.7129 58.2973 86.6025 61.4242V61.5924H81.6078C81.6972 61.9445 81.7498 62.3176 81.7498 62.696C81.7498 63.91 81.6814 65.1239 81.55 66.3116H85.4827L77.2756 86.8652H76.345C75.0464 86.8652 73.9949 87.9215 73.9949 89.2248C73.9949 94.6326 75.1147 98.2745 77.5174 100.687C81.4817 105.422 96.4289 105.422 100.393 100.687C102.796 98.2798 103.916 94.6326 103.916 89.2248C103.916 87.9163 102.864 86.8652 101.56 86.8652H101.566H101.571ZM82.3492 86.8652L88.9579 70.3057L95.5719 86.8652H82.3492Z" fill="url(#paint5_radial_107_2)"/>
<path d="M30.8198 86.8652H29.8892L21.6873 66.3116H25.6095C25.4781 65.1239 25.4097 63.9152 25.4097 62.696C25.4097 62.3176 25.457 61.9445 25.5517 61.5924H20.5622V61.4242C20.4466 58.2973 15.9671 58.292 15.8514 61.4242V61.5924H10.6412C7.52345 61.7027 7.52345 66.196 10.6412 66.3116H14.7263L6.52451 86.8652H5.59392C4.2953 86.8652 3.23853 87.9215 3.23853 89.2248C3.23853 94.6326 4.35839 98.2745 6.76636 100.687C10.7253 105.422 25.6726 105.422 29.6368 100.687C32.0395 98.2798 33.1646 94.6326 33.1646 89.2248C33.1646 87.9163 32.1079 86.8652 30.8092 86.8652H30.8198ZM11.6033 86.8652L18.2121 70.3057L24.8209 86.8652H11.6033Z" fill="url(#paint6_radial_107_2)"/>
<path d="M76.3084 60.1366C74.8626 60.1366 73.6901 61.3138 73.6901 62.759C73.6901 75.0302 64.8574 85.0258 53.9322 85.236C53.827 85.2203 53.7219 85.215 53.6167 85.215C53.5116 85.215 53.3959 85.2255 53.2907 85.236C42.3392 85.0626 33.4697 75.0512 33.4697 62.759C33.4697 61.3085 32.2973 60.1366 30.8514 60.1366C29.4056 60.1366 28.2332 61.3138 28.2332 62.759C28.2332 70.1165 30.8357 77.0482 35.5675 82.2773C39.7525 86.902 45.1573 89.7083 50.9932 90.3494V108.328H39.9313C38.4854 108.328 37.313 109.505 37.313 110.95C37.313 112.396 38.4854 113.573 39.9313 113.573H53.0804C53.2487 113.61 53.4274 113.625 53.6062 113.625C53.785 113.625 53.9637 113.61 54.132 113.573H67.2812C68.727 113.573 69.8994 112.396 69.8994 110.95C69.8994 109.505 68.727 108.328 67.2812 108.328H56.2192V90.3389C62.0288 89.682 67.4073 86.8757 71.5766 82.2773C76.3031 77.0535 78.9109 70.1217 78.9109 62.759C78.9109 61.3085 77.7385 60.1366 76.2926 60.1366H76.3084Z" fill="url(#paint7_radial_107_2)"/>
<path d="M70.1833 43.7611V39.1154H62.0551V35.3158H70.1781C70.1413 30.7857 68.2906 26.6918 65.3253 23.7173C62.3233 20.7112 58.175 18.8508 53.6009 18.8508C44.4896 18.8508 37.0974 26.2083 37.0186 35.3158H45.1415V39.1154H37.0186V43.7611H45.1415V47.5607H37.0186V52.2064H45.1415V56.006H37.0186V60.6569H45.1415V64.4565H37.0186C37.0974 73.564 44.4948 80.9214 53.6009 80.9214C62.7071 80.9214 70.0992 73.564 70.1781 64.4565H62.0551V60.6569H70.1833V56.006H62.0551V52.2064H70.1833V47.5607H62.0551V43.7611H70.1833ZM59.337 32.5935V67.1735H67.1602C65.8301 73.4536 60.2413 78.1939 53.6009 78.1939C46.9606 78.1939 41.3666 73.4536 40.0417 67.1735H47.8702V32.5935H40.0417C41.3718 26.3134 46.9659 21.5678 53.6009 21.5678C57.3023 21.5678 60.7828 23.013 63.4011 25.6355C65.3253 27.5694 66.6187 29.9763 67.1655 32.5935H59.337Z" fill="url(#paint8_linear_107_2)"/>
<path d="M76.3084 60.1366C74.8626 60.1366 73.6901 61.3085 73.6901 62.7538C73.6901 75.0249 64.8574 85.0205 53.9322 85.2308C53.827 85.215 53.7219 85.2097 53.6167 85.2097C53.5116 85.2097 53.3959 85.2203 53.2907 85.2308C42.3392 85.0573 33.4697 75.046 33.4697 62.7538C33.4697 61.3033 32.2973 60.1313 30.8514 60.1313C29.4056 60.1313 28.2332 61.3085 28.2332 62.7538C28.2332 70.1112 30.8357 77.043 35.5675 82.272C39.7525 86.8967 45.1573 89.703 50.9932 90.3442V108.323H39.9313C38.4854 108.323 37.313 109.5 37.313 110.945C37.313 112.39 38.4854 113.567 39.9313 113.567H53.0804C53.2487 113.604 53.4274 113.62 53.6062 113.62C53.785 113.62 53.9637 113.604 54.132 113.567H67.2812C68.727 113.567 69.8994 112.39 69.8994 110.945C69.8994 109.5 68.727 108.323 67.2812 108.323H56.2192V90.3337C62.0288 89.6768 67.4073 86.8704 71.5766 82.272C76.3031 77.0482 78.9109 70.1165 78.9109 62.7538C78.9109 61.3033 77.7385 60.1313 76.2926 60.1313L76.3084 60.1366ZM70.7827 81.5415C66.7869 85.956 61.7134 88.6204 56.1088 89.2563L55.1414 89.3667V109.416H67.2917C68.1329 109.416 68.8216 110.104 68.8216 110.95C68.8216 111.796 68.1381 112.485 67.2917 112.485H54.0321L53.9217 112.506C53.8218 112.527 53.7219 112.537 53.6115 112.537C53.5011 112.537 53.4012 112.527 53.3013 112.506L53.1909 112.485H39.9313C39.09 112.485 38.4013 111.796 38.4013 110.95C38.4013 110.104 39.0848 109.416 39.9313 109.416H52.0815V89.372L51.1141 89.2669C45.4833 88.6467 40.3834 85.977 36.3771 81.5468C31.8293 76.5227 29.3215 69.8484 29.3215 62.759C29.3215 61.9129 30.005 61.2245 30.8514 61.2245C31.6979 61.2245 32.3814 61.9129 32.3814 62.759C32.3814 75.5715 41.7504 86.1399 53.2697 86.3239H53.3328H53.3959C53.4695 86.3186 53.5431 86.3081 53.6167 86.3081C53.6746 86.3081 53.7324 86.3081 53.7902 86.3186L53.8743 86.3291H53.9585C65.441 86.1032 74.7837 75.5347 74.7837 62.7643C74.7837 61.9497 75.4199 61.2823 76.219 61.235H76.3137C77.1549 61.235 77.8436 61.9234 77.8436 62.7695C77.8436 69.859 75.341 76.528 70.788 81.5573L70.7827 81.5415Z" fill="url(#paint9_linear_107_2)"/>
<path d="M18.2018 101.512C13.2597 101.512 9.89482 100.177 8.85382 98.9367L8.77496 98.8422L8.69084 98.7581C6.87698 96.945 6.00948 94.023 5.96216 89.5823H30.4362C30.3941 94.0178 29.5213 96.9397 27.7075 98.7581L27.6234 98.8422L27.5445 98.9315C26.5088 100.172 23.1386 101.507 18.1965 101.507L18.2018 101.512Z" fill="url(#paint10_radial_107_2)"/>
<path d="M90.0726 101.512C85.1305 101.512 81.7657 100.177 80.7247 98.9367L80.6458 98.8422L80.5617 98.7581C78.7478 96.945 77.8803 94.023 77.833 89.5823H102.307C102.265 94.0178 101.392 96.9397 99.5783 98.7581L99.4942 98.8422L99.4153 98.9315C98.3796 100.172 95.0095 101.507 90.0674 101.507L90.0726 101.512Z" fill="url(#paint11_radial_107_2)"/>
<path d="M76.3084 60.1366C74.8626 60.1366 73.6901 61.3085 73.6901 62.7538C73.6901 75.0249 64.8574 85.0205 53.9322 85.2308C53.827 85.215 53.7219 85.2097 53.6167 85.2097C53.5116 85.2097 53.3959 85.2203 53.2907 85.2308C42.3392 85.0573 33.4697 75.046 33.4697 62.7538C33.4697 61.3033 32.2973 60.1313 30.8514 60.1313C29.4056 60.1313 28.2332 61.3085 28.2332 62.7538C28.2332 70.1112 30.8357 77.043 35.5675 82.272C39.7525 86.8967 45.1573 89.703 50.9932 90.3442V108.323H39.9313C38.4854 108.323 37.313 109.5 37.313 110.945C37.313 112.39 38.4854 113.567 39.9313 113.567H53.0804C53.2487 113.604 53.4274 113.62 53.6062 113.62C53.785 113.62 53.9637 113.604 54.132 113.567H67.2812C68.727 113.567 69.8994 112.39 69.8994 110.945C69.8994 109.5 68.727 108.323 67.2812 108.323H56.2192V90.3337C62.0288 89.6768 67.4073 86.8704 71.5766 82.272C76.3031 77.0482 78.9109 70.1165 78.9109 62.7538C78.9109 61.3033 77.7385 60.1313 76.2926 60.1313L76.3084 60.1366ZM70.7827 81.5415C66.7869 85.956 61.7134 88.6204 56.1088 89.2563L55.1414 89.3667V109.416H67.2917C68.1329 109.416 68.8216 110.104 68.8216 110.95C68.8216 111.796 68.1381 112.485 67.2917 112.485H54.0321L53.9217 112.506C53.8218 112.527 53.7219 112.537 53.6115 112.537C53.5011 112.537 53.4012 112.527 53.3013 112.506L53.1909 112.485H39.9313C39.09 112.485 38.4013 111.796 38.4013 110.95C38.4013 110.104 39.0848 109.416 39.9313 109.416H52.0815V89.372L51.1141 89.2669C45.4833 88.6467 40.3834 85.977 36.3771 81.5468C31.8293 76.5227 29.3215 69.8484 29.3215 62.759C29.3215 61.9129 30.005 61.2245 30.8514 61.2245C31.6979 61.2245 32.3814 61.9129 32.3814 62.759C32.3814 75.5715 41.7504 86.1399 53.2697 86.3239H53.3328H53.3959C53.4695 86.3186 53.5431 86.3081 53.6167 86.3081C53.6746 86.3081 53.7324 86.3081 53.7902 86.3186L53.8743 86.3291H53.9585C65.441 86.1032 74.7837 75.5347 74.7837 62.7643C74.7837 61.9497 75.4199 61.2823 76.219 61.235H76.3137C77.1549 61.235 77.8436 61.9234 77.8436 62.7695C77.8436 69.859 75.341 76.528 70.788 81.5573L70.7827 81.5415Z" fill="url(#paint12_linear_107_2)"/>
<path d="M9.99463 87.953H26.4245L18.2122 67.3627L9.99989 87.953H9.99463ZM11.6034 86.8652L18.2122 70.3057L24.821 86.8652H11.6034Z" fill="url(#paint13_linear_107_2)"/>
<path d="M30.8092 86.8652H29.8892L21.6873 66.3116H25.6095C25.4781 65.1239 25.4097 63.9152 25.4097 62.696C25.4097 62.3176 25.457 61.9445 25.5517 61.5924H20.5622V61.4242C20.4466 58.2973 15.9671 58.292 15.8514 61.4242V61.5924H10.6412C7.52345 61.7027 7.52345 66.196 10.6412 66.3116H14.7263L6.52451 86.8652H5.59392C4.2953 86.8652 3.23853 87.9215 3.23853 89.2248C3.23853 94.6326 4.35839 98.2745 6.76636 100.687C10.7253 105.422 25.6726 105.422 29.6368 100.687C32.0395 98.2798 33.1646 94.6326 33.1646 89.2248C33.1646 87.9163 32.1079 86.8652 30.8092 86.8652ZM28.8639 99.9142L28.8324 99.9457L28.8008 99.9825C27.192 101.901 23.0333 103.146 18.2016 103.146C13.3699 103.146 9.21113 101.906 7.60231 99.9825L7.57077 99.9457L7.53922 99.9089C5.35207 97.7174 4.3321 94.3225 4.3321 89.2196C4.3321 88.5206 4.89992 87.9478 5.59918 87.9478H7.26583L16.3404 65.2185H10.6464C9.45823 65.1765 9.39514 64.1517 9.39514 63.9467C9.39514 63.7418 9.45823 62.7223 10.6832 62.675H16.945V61.4189C16.9871 60.226 18.007 60.1629 18.2068 60.1629C18.4066 60.1629 19.4266 60.226 19.4739 61.461V62.675H24.3214V62.6907C24.3214 63.5263 24.3529 64.3724 24.416 65.2185H20.0838L29.1584 87.9478H30.8145C31.5138 87.9478 32.0816 88.5206 32.0816 89.2196C32.0816 94.3172 31.0616 97.7174 28.8744 99.9089L28.8639 99.9142Z" fill="url(#paint14_linear_107_2)"/>
<path d="M101.566 86.8652H100.646L92.4386 66.3116H96.5237C99.6467 66.1908 99.6414 61.7027 96.5237 61.5924H91.3134V61.4242C91.203 58.292 86.7183 58.2973 86.6079 61.4242V61.5924H81.6132C81.7026 61.9445 81.7552 62.3176 81.7552 62.696C81.7552 63.91 81.6868 65.1239 81.5554 66.3116H85.488L77.281 86.8652H76.3504C75.0518 86.8652 74.0002 87.9215 74.0002 89.2248C74.0002 94.6326 75.1201 98.2745 77.5228 100.687C81.487 105.422 96.4343 105.422 100.399 100.687C102.801 98.2798 103.921 94.6326 103.921 89.2248C103.921 87.9163 102.87 86.8652 101.566 86.8652ZM99.6257 99.9142L99.5941 99.9457L99.5626 99.9825C97.9537 101.901 93.795 103.146 88.958 103.146C84.1211 103.146 79.9623 101.906 78.3535 99.9825L78.322 99.9457L78.2904 99.9142C76.1033 97.7227 75.0833 94.3278 75.0833 89.2248C75.0833 88.5259 75.6511 87.9531 76.3451 87.9531H78.017L87.0916 65.2238H82.7488C82.8119 64.3934 82.8435 63.5473 82.8435 62.696V62.6802H87.6962V61.4242C87.7383 60.2312 88.7583 60.1682 88.9633 60.1682C89.1683 60.1682 90.1831 60.2312 90.2251 61.4662V62.6855H96.5237C97.7119 62.7275 97.775 63.747 97.775 63.952C97.775 64.157 97.7119 65.1817 96.4816 65.229H90.8297L99.9043 87.9583H101.566C102.265 87.9583 102.833 88.5311 102.833 89.2301C102.833 94.333 101.813 97.728 99.6257 99.9194V99.9142Z" fill="url(#paint15_linear_107_2)"/>
<path d="M80.7458 87.953H97.181L88.9582 67.3679L80.7458 87.953ZM95.5775 86.8652H82.3547L88.9634 70.3056L95.5775 86.8652Z" fill="url(#paint16_linear_107_2)"/>
<path d="M301.99 114.114C300.544 114.114 299.245 113.794 298.094 113.152C296.942 112.511 296.028 111.581 295.349 110.351C294.671 109.122 294.335 107.634 294.335 105.879C294.335 104.124 294.671 102.615 295.349 101.386C296.028 100.156 296.942 99.2205 298.094 98.5846C299.245 97.9488 300.549 97.6229 301.99 97.6229C303.43 97.6229 304.724 97.9435 305.875 98.5846C307.027 99.2258 307.941 100.156 308.614 101.386C309.287 102.615 309.624 104.113 309.624 105.879C309.624 107.645 309.287 109.132 308.614 110.362C307.941 111.592 307.032 112.522 305.875 113.158C304.718 113.794 303.425 114.109 301.99 114.109V114.114ZM301.99 110.772C302.768 110.772 303.436 110.583 303.993 110.209C304.55 109.836 304.987 109.284 305.286 108.554C305.586 107.824 305.738 106.93 305.738 105.874C305.738 104.817 305.586 103.914 305.286 103.178C304.987 102.442 304.555 101.89 303.993 101.517C303.43 101.144 302.763 100.955 301.99 100.955C301.217 100.955 300.533 101.144 299.976 101.522C299.419 101.901 298.982 102.453 298.683 103.183C298.383 103.914 298.231 104.807 298.231 105.874C298.231 106.941 298.383 107.824 298.683 108.549C298.982 109.274 299.414 109.826 299.976 110.204C300.539 110.583 301.206 110.772 301.99 110.772Z" fill="white"/>
<path d="M311.769 113.899V97.8384H322.689V100.944H315.57V105.017H321.984V108.055H315.57V113.899H311.763H311.769Z" fill="white"/>
<path d="M75.6775 3.1059V0H89.2V3.1059H84.3367V16.0603H80.5407V3.1059H75.6775Z" fill="white"/>
<path d="M91.1609 16.0603V0H94.9674V6.30639H101.382V0H105.178V16.0603H101.382V9.41228H94.9674V16.0603H91.1609Z" fill="white"/>
<path d="M107.691 16.0603V0H118.842V3.1059H111.497V6.42726H118.258V9.46484H111.497V12.9544H118.831V16.0603H107.696H107.691Z" fill="white"/>
<path d="M30.394 168.107C30.394 167.85 30.4151 167.555 30.4519 167.23C30.4939 166.904 30.5518 166.552 30.6306 166.173L32.6601 156.609H36.9555L34.8104 166.741C34.7894 166.862 34.7683 166.983 34.7526 167.114C34.7315 167.245 34.721 167.366 34.721 167.487C34.721 167.902 34.7946 168.228 34.9471 168.454C35.0943 168.685 35.3204 168.796 35.6201 168.796C36.1353 168.796 36.598 168.57 37.0081 168.123C37.4129 167.676 37.7494 167.025 38.007 166.173L40.0364 156.609H44.3319L42.1868 166.741C42.1447 166.962 42.1132 167.161 42.0816 167.351C42.0501 167.54 42.0396 167.692 42.0396 167.813C42.0396 168.128 42.1237 168.375 42.2919 168.543C42.4602 168.712 42.7125 168.796 43.0543 168.796C43.7483 168.796 44.4318 168.433 45.0942 167.708C45.7619 166.983 46.3613 165.953 46.8976 164.623C47.2971 163.672 47.6126 162.668 47.8492 161.612C48.0858 160.561 48.2067 159.636 48.2067 158.842C48.1646 158.921 48.0437 158.989 47.8334 159.052C47.6231 159.11 47.4286 159.142 47.2498 159.142C46.9291 159.142 46.6715 158.989 46.477 158.679C46.2772 158.369 46.1773 158.017 46.1773 157.623C46.1773 157.124 46.3403 156.735 46.6715 156.446C46.9975 156.157 47.4496 156.015 48.0279 156.015C48.6431 156.015 49.111 156.241 49.4317 156.698C49.7472 157.155 49.9102 157.791 49.9102 158.606C49.9102 159.956 49.7367 161.37 49.3897 162.852C49.0427 164.334 48.5695 165.679 47.9754 166.888C47.1815 168.459 46.2246 169.647 45.1152 170.462C44.0006 171.276 42.7704 171.681 41.4192 171.681C40.4255 171.681 39.6263 171.465 39.0217 171.04C38.4171 170.614 38.0228 169.994 37.844 169.179C37.2657 170.015 36.6348 170.64 35.9513 171.055C35.2678 171.471 34.4844 171.681 33.6117 171.681C32.618 171.681 31.8399 171.371 31.2721 170.74C30.7042 170.115 30.4203 169.237 30.4203 168.102L30.394 168.107Z" fill="#FAA31A"/>
<path d="M55.11 169.269C55.11 169.926 54.8734 170.483 54.4107 170.94C53.9428 171.397 53.3802 171.623 52.7283 171.623C52.0764 171.623 51.5138 171.397 51.0617 170.94C50.6043 170.483 50.3782 169.926 50.3782 169.269C50.3782 168.612 50.6043 168.049 51.0617 167.587C51.5191 167.119 52.0764 166.888 52.7283 166.888C53.3802 166.888 53.9481 167.119 54.4107 167.587C54.8787 168.055 55.11 168.617 55.11 169.269Z" fill="#FAA31A"/>
<path d="M67.2708 171.502H62.9754L67.0289 152.546L71.44 151.952L70.0363 158.569H70.215C71.3296 158.569 72.3233 158.064 73.1961 157.05C74.0688 156.036 74.5105 154.932 74.5105 153.745C74.5105 152.751 74.1687 151.968 73.48 151.39C72.7965 150.812 71.8238 150.528 70.5725 150.528C68.4853 150.528 66.7187 151.196 65.2782 152.525C63.8376 153.855 63.1173 155.605 63.1173 157.77C63.1173 158.148 63.1436 158.474 63.1909 158.753C63.2382 159.031 63.3224 159.299 63.4433 159.557C63.4853 159.636 63.5064 159.688 63.5169 159.72C63.5274 159.751 63.5327 159.772 63.5327 159.793C62.4601 159.793 61.661 159.567 61.1299 159.11C60.6042 158.653 60.3413 157.97 60.3413 157.055C60.3413 155.983 60.6831 154.932 61.3718 153.897C62.0553 152.867 63.0069 151.958 64.2214 151.185C65.2151 150.528 66.3139 150.029 67.5179 149.682C68.7219 149.335 69.9364 149.162 71.1719 149.162C73.1172 149.162 74.6629 149.598 75.8091 150.476C76.95 151.348 77.5231 152.494 77.5231 153.902C77.5231 154.838 77.2549 155.731 76.7186 156.582C76.1824 157.439 75.4568 158.122 74.542 158.637C75.6777 158.858 76.5452 159.389 77.1498 160.23C77.7544 161.076 78.0593 162.143 78.0593 163.435C78.0593 164.371 77.9226 165.354 77.644 166.384C77.3653 167.419 76.9763 168.333 76.4821 169.127C75.888 170.078 75.1677 170.798 74.337 171.287C73.501 171.776 72.5652 172.017 71.5347 172.017C70.5988 172.017 69.8733 171.828 69.358 171.45C68.8428 171.071 68.5852 170.525 68.5852 169.81C68.5852 169.574 68.6167 169.311 68.6746 169.022C68.7324 168.733 68.8323 168.423 68.9742 168.081C69.3528 168.459 69.6945 168.733 70.0047 168.901C70.3149 169.069 70.6356 169.153 70.9721 169.153C71.8659 169.153 72.5809 168.638 73.1172 167.603C73.6535 166.573 73.9216 165.301 73.9216 163.787C73.9216 162.537 73.685 161.591 73.2066 160.955C72.7282 160.319 72.0236 160.004 71.0878 160.004C70.9458 160.004 70.746 160.014 70.4779 160.035C70.2098 160.056 69.9574 160.077 69.7156 160.093L67.2708 171.508V171.502Z" fill="#FAA31A"/>
<path d="M81.9707 171.502H77.6753L80.8351 156.603H85.1305L84.7415 158.453C85.6142 157.718 86.3082 157.229 86.8129 156.977C87.3177 156.73 87.8329 156.603 88.3482 156.603C88.9633 156.603 89.4628 156.819 89.8361 157.245C90.2146 157.67 90.4039 158.201 90.4039 158.837C90.4039 159.473 90.2041 159.972 89.8098 160.387C89.4102 160.802 88.8949 161.013 88.2588 161.013C87.9223 161.013 87.6594 160.934 87.4701 160.776C87.2809 160.618 87.1442 160.287 87.0653 159.793C87.0075 159.478 86.9339 159.273 86.855 159.184C86.7761 159.094 86.6657 159.052 86.529 159.052C86.1926 159.052 85.8718 159.121 85.5774 159.263C85.2777 159.404 84.8729 159.709 84.3577 160.188L81.9707 171.513V171.502Z" fill="#FAA31A"/>
<path d="M100.604 159.194C100.604 160.844 99.9255 162.279 98.5743 163.498C97.2231 164.723 95.6143 165.38 93.7426 165.48C93.7216 165.816 93.7058 166.073 93.7006 166.242C93.69 166.41 93.6848 166.557 93.6848 166.673C93.6848 167.587 93.8373 168.233 94.1475 168.612C94.4577 168.99 95.015 169.179 95.8299 169.179C96.7657 169.179 97.6227 168.964 98.4113 168.538C99.1947 168.113 100.094 167.324 101.108 166.168H102.123C100.972 168.034 99.7205 169.421 98.3693 170.325C97.0181 171.229 95.5354 171.681 93.9266 171.681C92.3178 171.681 91.24 171.281 90.4514 170.488C89.668 169.694 89.2737 168.512 89.2737 166.941C89.2737 165.805 89.4524 164.607 89.81 163.335C90.1675 162.064 90.6459 160.934 91.24 159.94C91.9761 158.748 92.8541 157.849 93.8793 157.244C94.9045 156.64 96.0507 156.335 97.323 156.335C98.4166 156.335 99.2368 156.567 99.7836 157.034C100.33 157.502 100.604 158.222 100.604 159.194ZM97.5649 157.912C96.8866 157.912 96.2084 158.511 95.5249 159.714C94.8415 160.918 94.3262 162.363 93.9897 164.05C95.1411 163.971 96.1506 163.441 97.0181 162.458C97.8803 161.475 98.3167 160.366 98.3167 159.136C98.3167 158.721 98.2589 158.411 98.1379 158.211C98.017 158.012 97.8278 157.912 97.5701 157.912H97.5649Z" fill="#FAA31A"/>
<path d="M101.886 156.603H102.87L103.763 152.488L108.175 151.895L107.16 156.603H108.947L108.711 157.796H106.923L105.015 166.736C104.973 166.914 104.946 167.077 104.925 167.23C104.904 167.377 104.894 167.534 104.894 167.692C104.894 168.091 104.988 168.375 105.178 168.543C105.367 168.712 105.677 168.796 106.119 168.796C106.676 168.796 107.202 168.554 107.696 168.065C108.196 167.576 108.558 166.946 108.8 166.173H110.052C109.415 167.981 108.558 169.353 107.486 170.288C106.413 171.224 105.178 171.691 103.79 171.691C102.796 171.691 102.018 171.381 101.45 170.751C100.882 170.125 100.598 169.248 100.598 168.112C100.598 167.855 100.619 167.561 100.656 167.235C100.698 166.909 100.756 166.557 100.835 166.178L102.623 157.807H101.639L101.876 156.614L101.886 156.603Z" fill="#FAA31A"/>
<path d="M109.547 156.603H110.53L111.424 152.488L115.835 151.895L114.82 156.603H116.608L116.371 157.796H114.584L112.675 166.736C112.633 166.914 112.607 167.077 112.586 167.23C112.565 167.377 112.554 167.534 112.554 167.692C112.554 168.091 112.649 168.375 112.838 168.543C113.027 168.712 113.338 168.796 113.779 168.796C114.337 168.796 114.862 168.554 115.357 168.065C115.856 167.576 116.219 166.946 116.461 166.173H117.712C117.076 167.981 116.219 169.353 115.146 170.288C114.074 171.224 112.838 171.691 111.45 171.691C110.456 171.691 109.678 171.381 109.111 170.751C108.543 170.125 108.259 169.248 108.259 168.112C108.259 167.855 108.28 167.561 108.317 167.235C108.359 166.909 108.417 166.557 108.495 166.178L110.283 157.807H109.3L109.536 156.614L109.547 156.603Z" fill="#FAA31A"/>
<path d="M136.797 160.419C137.097 160.44 137.317 160.455 137.47 160.461C137.617 160.471 137.754 160.476 137.875 160.476C138.511 160.476 139.089 160.361 139.604 160.135C140.12 159.909 140.488 159.594 140.709 159.194H140.887C140.887 160.067 140.43 160.928 139.515 161.775C138.6 162.621 137.549 163.141 136.355 163.341C135.977 164.691 135.535 165.879 135.03 166.904C134.526 167.929 133.953 168.775 133.316 169.453C132.58 170.225 131.75 170.793 130.824 171.15C129.899 171.507 128.642 171.686 127.055 171.686C125.188 171.686 123.69 171.118 122.57 169.989C121.445 168.853 120.887 167.413 120.887 165.669C120.887 164.061 121.382 162.642 122.365 161.422C123.348 160.203 124.657 159.42 126.287 159.084C125.351 158.569 124.626 157.912 124.11 157.118C123.595 156.325 123.337 155.468 123.337 154.554C123.337 153.045 123.958 151.768 125.199 150.723C126.439 149.677 128.027 149.156 129.952 149.156C131.623 149.156 132.954 149.509 133.947 150.213C134.941 150.917 135.44 151.895 135.44 153.145C135.44 154.039 135.262 154.722 134.904 155.184C134.547 155.652 134.031 155.883 133.353 155.883C133.017 155.883 132.701 155.82 132.412 155.689C132.123 155.557 131.871 155.368 131.65 155.106C131.986 155.006 132.291 154.69 132.559 154.154C132.827 153.618 132.964 153.119 132.964 152.662C132.964 151.968 132.796 151.427 132.459 151.038C132.123 150.649 131.634 150.455 130.998 150.455C129.946 150.455 129.073 150.807 128.39 151.511C127.707 152.215 127.36 153.087 127.36 154.118C127.36 155.148 127.701 156.041 128.39 156.903C129.073 157.765 130.046 158.479 131.297 159.031C129.626 159.709 128.348 160.571 127.454 161.622C126.56 162.673 126.113 163.808 126.113 165.017C126.113 166.11 126.455 167.046 127.144 167.818C127.827 168.591 128.648 168.98 129.605 168.98C130.935 168.98 132.076 168.496 133.017 167.534C133.958 166.573 134.62 165.185 134.999 163.377C134.899 163.377 134.794 163.377 134.683 163.362C134.573 163.351 134.42 163.325 134.221 163.288C133.842 163.246 133.563 163.225 133.385 163.214C133.206 163.204 133.038 163.199 132.88 163.199C132.223 163.199 131.66 163.314 131.198 163.54C130.73 163.772 130.356 164.103 130.078 164.539L129.867 164.507C130.183 163.214 130.856 162.195 131.881 161.438C132.906 160.681 134.152 160.308 135.624 160.308C135.782 160.308 135.94 160.308 136.103 160.324C136.261 160.335 136.502 160.361 136.818 160.398L136.797 160.419Z" fill="#FAA31A"/>
<path d="M148.695 164.47C148.695 166.121 148.984 167.308 149.557 168.034C150.135 168.759 151.04 169.121 152.27 169.121C153.4 169.121 154.483 168.859 155.503 168.333C156.529 167.808 157.386 167.077 158.085 166.142L158.768 166.441C158.111 168.128 156.975 169.474 155.356 170.477C153.737 171.481 152.044 171.98 150.272 171.98C147.964 171.98 146.303 171.397 145.277 170.236C144.252 169.074 143.742 167.209 143.742 164.649C143.742 162.999 143.952 161.281 144.368 159.494C144.783 157.707 145.362 156.104 146.098 154.696C147.049 152.888 148.211 151.511 149.573 150.57C150.935 149.629 152.459 149.156 154.152 149.156C155.74 149.156 156.97 149.498 157.832 150.187C158.695 150.87 159.131 151.863 159.131 153.151C159.131 154.044 158.952 154.727 158.595 155.19C158.237 155.657 157.722 155.889 157.044 155.889C156.707 155.889 156.392 155.825 156.103 155.694C155.814 155.563 155.561 155.374 155.34 155.111C155.698 154.932 156.019 154.569 156.297 154.023C156.576 153.476 156.713 152.925 156.713 152.367C156.713 151.81 156.555 151.343 156.234 151.027C155.913 150.712 155.467 150.549 154.893 150.549C154.021 150.549 153.153 151.08 152.302 152.142C151.445 153.203 150.703 154.669 150.067 156.535C149.631 157.807 149.294 159.131 149.052 160.513C148.816 161.895 148.695 163.209 148.695 164.46V164.47Z" fill="#FAA31A"/>
<path d="M164.94 168.312C164.94 167.955 164.983 167.508 165.077 166.972C165.167 166.436 165.351 165.579 165.629 164.407C165.908 163.272 166.087 162.463 166.166 161.964C166.244 161.47 166.286 161.049 166.286 160.713C166.286 160.214 166.192 159.841 166.003 159.578C165.813 159.32 165.54 159.189 165.182 159.189C164.704 159.189 164.241 159.473 163.794 160.04C163.347 160.608 163.053 161.196 162.916 161.811L160.861 171.497H156.565L160.887 151.232L165.298 150.639L163.689 158.148C164.183 157.591 164.72 157.176 165.298 156.898C165.876 156.619 166.502 156.482 167.175 156.482C168.226 156.482 169.041 156.772 169.62 157.344C170.198 157.922 170.482 158.753 170.482 159.846C170.482 160.303 170.429 160.844 170.319 161.47C170.209 162.095 169.993 163.057 169.678 164.344C169.42 165.359 169.252 166.073 169.173 166.489C169.094 166.904 169.052 167.256 169.052 167.529C169.052 167.944 169.152 168.26 169.352 168.47C169.551 168.68 169.851 168.785 170.245 168.785C170.745 168.785 171.171 168.617 171.528 168.281C171.886 167.944 172.296 167.235 172.753 166.163H174.005C173.368 168.013 172.601 169.39 171.696 170.304C170.792 171.218 169.714 171.676 168.463 171.676C167.348 171.676 166.486 171.371 165.871 170.766C165.256 170.162 164.946 169.342 164.946 168.307L164.94 168.312Z" fill="#FAA31A"/>
<path d="M183.248 159.194C183.248 160.844 182.569 162.279 181.218 163.498C179.867 164.723 178.258 165.38 176.386 165.48C176.365 165.816 176.35 166.073 176.344 166.242C176.334 166.41 176.329 166.557 176.329 166.673C176.329 167.587 176.481 168.233 176.791 168.612C177.101 168.99 177.659 169.179 178.474 169.179C179.41 169.179 180.267 168.964 181.055 168.538C181.839 168.113 182.738 167.324 183.752 166.168H184.767C183.616 168.034 182.364 169.421 181.013 170.325C179.662 171.229 178.179 171.681 176.57 171.681C174.962 171.681 173.884 171.281 173.095 170.488C172.312 169.694 171.917 168.512 171.917 166.941C171.917 165.805 172.096 164.607 172.454 163.335C172.811 162.064 173.29 160.934 173.884 159.94C174.62 158.748 175.498 157.849 176.523 157.244C177.548 156.64 178.694 156.335 179.967 156.335C181.06 156.335 181.881 156.567 182.427 157.034C182.974 157.502 183.248 158.222 183.248 159.194ZM180.209 157.912C179.53 157.912 178.852 158.511 178.169 159.714C177.485 160.918 176.97 162.363 176.634 164.05C177.785 163.971 178.794 163.441 179.662 162.458C180.524 161.475 180.961 160.366 180.961 159.136C180.961 158.721 180.903 158.411 180.782 158.211C180.661 158.012 180.472 157.912 180.214 157.912H180.209Z" fill="#FAA31A"/>
<path d="M183.184 168.107C183.184 167.85 183.205 167.555 183.242 167.23C183.284 166.904 183.342 166.552 183.421 166.173L186.612 151.243L191.023 150.649L187.596 166.741C187.553 166.92 187.527 167.082 187.506 167.235C187.485 167.382 187.475 167.54 187.475 167.697C187.475 168.097 187.569 168.381 187.759 168.549C187.948 168.717 188.258 168.801 188.7 168.801C189.257 168.801 189.783 168.559 190.277 168.07C190.776 167.582 191.139 166.951 191.381 166.179H192.632C191.996 167.986 191.139 169.358 190.067 170.293C188.994 171.229 187.759 171.697 186.371 171.697C185.377 171.697 184.599 171.387 184.031 170.756C183.463 170.131 183.179 169.253 183.179 168.118L183.184 168.107Z" fill="#FAA31A"/>
<path d="M200.45 166.525C200.45 166.762 200.44 166.972 200.419 167.151C200.398 167.33 200.371 167.498 200.329 167.655C200.729 167.419 201.113 167.167 201.491 166.909C201.87 166.652 202.196 166.405 202.475 166.163H203.726C203.111 166.878 202.427 167.54 201.686 168.144C200.939 168.748 200.098 169.332 199.168 169.889C198.631 170.467 197.943 170.908 197.112 171.213C196.276 171.523 195.403 171.676 194.488 171.676C193.158 171.676 192.096 171.313 191.313 170.588C190.529 169.863 190.135 168.953 190.135 167.86C190.135 167.245 190.282 166.683 190.582 166.179C190.882 165.674 191.255 165.311 191.712 165.091C192.391 163.877 193.021 162.584 193.605 161.202C194.189 159.82 194.783 158.175 195.377 156.272L199.788 155.678C199.846 157.171 199.919 158.532 199.998 159.762C200.077 160.992 200.177 162.337 200.298 163.787C200.356 164.623 200.398 165.206 200.419 165.548C200.44 165.884 200.45 166.215 200.45 166.531V166.525ZM195.561 159.494C195.303 160.308 194.988 161.16 194.62 162.043C194.252 162.926 193.757 163.956 193.142 165.128C193.363 165.227 193.531 165.364 193.647 165.543C193.768 165.721 193.826 165.932 193.826 166.168C193.826 166.546 193.694 166.883 193.437 167.182C193.179 167.482 192.869 167.629 192.511 167.629C192.312 167.629 192.143 167.592 192.007 167.524C191.87 167.456 191.77 167.361 191.707 167.24C191.707 167.976 191.849 168.507 192.138 168.833C192.427 169.158 192.89 169.327 193.526 169.327C194.341 169.327 194.977 169.09 195.435 168.612C195.892 168.134 196.118 167.45 196.118 166.557C196.118 166.278 196.108 165.995 196.087 165.706C196.066 165.417 196.029 164.938 195.966 164.26C195.866 163.325 195.787 162.5 195.729 161.785C195.671 161.07 195.608 160.303 195.55 159.489L195.561 159.494Z" fill="#FAA31A"/>
<path d="M213.594 159.194C213.594 160.844 212.916 162.279 211.565 163.498C210.214 164.723 208.605 165.38 206.733 165.48C206.712 165.816 206.696 166.073 206.691 166.242C206.681 166.41 206.675 166.557 206.675 166.673C206.675 167.587 206.828 168.233 207.138 168.612C207.448 168.99 208.005 169.179 208.82 169.179C209.756 169.179 210.613 168.964 211.402 168.538C212.185 168.113 213.084 167.324 214.099 166.168H215.114C213.962 168.034 212.711 169.421 211.36 170.325C210.009 171.229 208.526 171.681 206.917 171.681C205.308 171.681 204.231 171.281 203.442 170.488C202.658 169.694 202.264 168.512 202.264 166.941C202.264 165.805 202.443 164.607 202.8 163.335C203.158 162.064 203.636 160.934 204.231 159.94C204.967 158.748 205.845 157.849 206.87 157.244C207.895 156.64 209.041 156.335 210.314 156.335C211.407 156.335 212.227 156.567 212.774 157.034C213.321 157.502 213.594 158.222 213.594 159.194ZM210.555 157.912C209.877 157.912 209.199 158.511 208.515 159.714C207.832 160.918 207.317 162.363 206.98 164.05C208.132 163.971 209.141 163.441 210.009 162.458C210.871 161.475 211.307 160.366 211.307 159.136C211.307 158.721 211.249 158.411 211.128 158.211C211.008 158.012 210.818 157.912 210.561 157.912H210.555Z" fill="#FAA31A"/>
<path d="M224.746 159.194C224.746 160.844 224.067 162.279 222.716 163.498C221.365 164.723 219.756 165.38 217.884 165.48C217.863 165.816 217.848 166.073 217.842 166.242C217.832 166.41 217.827 166.557 217.827 166.673C217.827 167.587 217.979 168.233 218.289 168.612C218.599 168.99 219.157 169.179 219.972 169.179C220.908 169.179 221.765 168.964 222.553 168.538C223.337 168.113 224.236 167.324 225.25 166.168H226.265C225.114 168.034 223.862 169.421 222.511 170.325C221.16 171.229 219.677 171.681 218.068 171.681C216.46 171.681 215.382 171.281 214.593 170.488C213.81 169.694 213.416 168.512 213.416 166.941C213.416 165.805 213.594 164.607 213.952 163.335C214.309 162.064 214.788 160.934 215.382 159.94C216.118 158.748 216.996 157.849 218.021 157.244C219.046 156.64 220.193 156.335 221.465 156.335C222.558 156.335 223.379 156.567 223.925 157.034C224.472 157.502 224.746 158.222 224.746 159.194ZM221.707 157.912C221.028 157.912 220.35 158.511 219.667 159.714C218.983 160.918 218.468 162.363 218.132 164.05C219.283 163.971 220.292 163.441 221.16 162.458C222.022 161.475 222.459 160.366 222.459 159.136C222.459 158.721 222.401 158.411 222.28 158.211C222.159 158.012 221.97 157.912 221.712 157.912H221.707Z" fill="#FAA31A"/>
<path d="M233.867 154.485C233.867 152.956 234.53 151.684 235.85 150.67C237.169 149.656 238.804 149.151 240.755 149.151C242.264 149.151 243.441 149.461 244.288 150.076C245.134 150.691 245.555 151.574 245.555 152.73C245.555 153.624 245.329 154.349 244.882 154.906C244.435 155.463 243.841 155.741 243.11 155.741C242.832 155.741 242.579 155.694 242.348 155.594C242.122 155.494 241.917 155.337 241.738 155.116C242.138 154.88 242.458 154.522 242.705 154.044C242.952 153.566 243.079 153.072 243.079 152.551C243.079 151.916 242.889 151.427 242.511 151.075C242.132 150.728 241.586 150.554 240.87 150.554C240.014 150.554 239.346 150.791 238.857 151.269C238.368 151.747 238.126 152.41 238.126 153.266C238.126 153.96 238.305 154.622 238.662 155.247C239.02 155.873 239.798 156.714 240.986 157.765C242.558 159.136 243.589 160.324 244.088 161.328C244.588 162.332 244.835 163.451 244.835 164.681C244.835 166.946 244.051 168.754 242.479 170.104C240.907 171.455 238.904 172.133 236.454 172.133C234.504 172.133 232.968 171.686 231.833 170.793C230.697 169.899 230.135 168.638 230.135 167.009C230.135 165.579 230.56 164.407 231.417 163.493C232.269 162.579 233.305 162.121 234.519 162.121C235.276 162.121 235.892 162.295 236.37 162.642C236.848 162.989 237.106 163.472 237.143 164.087C236.107 164.087 235.271 164.334 234.624 164.833C233.978 165.332 233.657 166.016 233.657 166.888C233.657 167.76 233.915 168.407 234.43 168.943C234.945 169.479 235.639 169.747 236.517 169.747C237.553 169.747 238.384 169.389 239.02 168.675C239.656 167.96 239.971 166.998 239.971 165.784C239.971 164.849 239.761 163.955 239.346 163.104C238.93 162.253 238.063 161.107 236.754 159.678C235.56 158.406 234.782 157.407 234.414 156.682C234.046 155.957 233.862 155.226 233.862 154.491L233.867 154.485Z" fill="#FAA31A"/>
<path d="M255.723 157.975V158.185L256.049 156.603H260.344L258.199 166.736C258.157 166.914 258.131 167.077 258.11 167.23C258.089 167.377 258.078 167.534 258.078 167.692C258.078 168.128 258.178 168.454 258.378 168.659C258.578 168.869 258.883 168.969 259.303 168.969C259.819 168.969 260.287 168.727 260.707 168.239C261.128 167.75 261.464 167.061 261.722 166.168H262.973C262.337 167.997 261.512 169.374 260.497 170.293C259.482 171.218 258.31 171.681 256.98 171.681C256.123 171.681 255.444 171.444 254.94 170.966C254.435 170.488 254.141 169.815 254.062 168.938C253.447 169.852 252.763 170.535 252.022 170.992C251.275 171.45 250.476 171.676 249.619 171.676C248.389 171.676 247.416 171.26 246.712 170.425C246.007 169.589 245.655 168.407 245.655 166.877C245.655 165.763 245.823 164.602 246.16 163.393C246.496 162.184 246.964 161.081 247.563 160.088C248.299 158.916 249.151 158.017 250.129 157.392C251.102 156.766 252.169 156.451 253.32 156.451C254.093 156.451 254.693 156.582 255.108 156.856C255.523 157.124 255.734 157.497 255.734 157.975H255.723ZM255.455 159.436C255.455 159.136 255.345 158.874 255.129 158.648C254.908 158.422 254.614 158.306 254.235 158.306C253.142 158.306 252.174 159.22 251.328 161.049C250.481 162.878 250.061 164.686 250.061 166.473C250.061 167.245 250.171 167.829 250.387 168.218C250.607 168.606 250.991 168.801 251.549 168.801C252.064 168.801 252.568 168.554 253.052 168.055C253.541 167.561 253.862 166.935 254.02 166.179L255.45 159.441L255.455 159.436Z" fill="#FAA31A"/>
<path d="M272.358 159.073C272.358 159.751 272.211 160.282 271.927 160.666C271.638 161.055 271.254 161.249 270.781 161.249C270.623 161.249 270.455 161.218 270.276 161.16C270.097 161.102 269.918 161.013 269.74 160.892C269.861 160.576 269.95 160.266 270.008 159.967C270.066 159.667 270.097 159.389 270.097 159.131C270.097 158.732 270.029 158.432 269.887 158.222C269.745 158.012 269.54 157.907 269.261 157.907C268.389 157.907 267.532 158.916 266.696 160.934C265.86 162.952 265.444 164.865 265.444 166.673C265.444 167.587 265.597 168.233 265.907 168.612C266.217 168.99 266.774 169.179 267.589 169.179C268.525 169.179 269.382 168.964 270.171 168.538C270.954 168.113 271.853 167.324 272.868 166.168H273.883C272.731 168.034 271.48 169.421 270.129 170.325C268.778 171.229 267.295 171.681 265.686 171.681C264.077 171.681 263 171.281 262.211 170.488C261.428 169.694 261.033 168.512 261.033 166.941C261.033 165.805 261.207 164.607 261.554 163.335C261.901 162.064 262.384 160.934 263 159.94C263.736 158.748 264.614 157.849 265.639 157.244C266.664 156.64 267.8 156.335 269.051 156.335C270.145 156.335 270.97 156.567 271.527 157.034C272.085 157.502 272.363 158.18 272.363 159.073H272.358Z" fill="#FAA31A"/>
<path d="M280.05 168.312C280.05 167.955 280.092 167.508 280.187 166.972C280.276 166.436 280.46 165.579 280.739 164.407C281.017 163.272 281.196 162.463 281.275 161.964C281.354 161.47 281.396 161.049 281.396 160.713C281.396 160.214 281.301 159.841 281.112 159.578C280.923 159.32 280.649 159.189 280.292 159.189C279.813 159.189 279.351 159.473 278.904 160.04C278.457 160.608 278.162 161.196 278.026 161.811L275.97 171.497H271.675L275.996 151.232L280.407 150.639L278.799 158.148C279.293 157.591 279.829 157.176 280.407 156.898C280.986 156.619 281.611 156.482 282.284 156.482C283.336 156.482 284.151 156.772 284.729 157.344C285.307 157.922 285.591 158.753 285.591 159.846C285.591 160.303 285.539 160.844 285.428 161.47C285.318 162.095 285.102 163.057 284.787 164.344C284.529 165.359 284.361 166.073 284.282 166.489C284.203 166.904 284.161 167.256 284.161 167.529C284.161 167.944 284.261 168.26 284.461 168.47C284.661 168.68 284.96 168.785 285.355 168.785C285.854 168.785 286.28 168.617 286.638 168.281C286.995 167.944 287.405 167.235 287.863 166.163H289.114C288.478 168.013 287.71 169.39 286.806 170.304C285.902 171.218 284.824 171.676 283.572 171.676C282.458 171.676 281.596 171.371 280.98 170.766C280.365 170.162 280.055 169.342 280.055 168.307L280.05 168.312Z" fill="#FAA31A"/>
<path d="M296.922 166.525C296.922 166.762 296.911 166.972 296.89 167.151C296.869 167.33 296.843 167.498 296.801 167.655C297.2 167.419 297.584 167.167 297.963 166.909C298.341 166.652 298.667 166.405 298.946 166.163H300.197C299.582 166.878 298.898 167.54 298.157 168.144C297.41 168.748 296.569 169.332 295.639 169.889C295.102 170.467 294.414 170.908 293.583 171.213C292.747 171.523 291.874 171.676 290.959 171.676C289.629 171.676 288.567 171.313 287.784 170.588C287.001 169.863 286.606 168.953 286.606 167.86C286.606 167.245 286.753 166.683 287.053 166.179C287.353 165.674 287.726 165.311 288.183 165.091C288.862 163.877 289.493 162.584 290.076 161.202C290.66 159.82 291.254 158.175 291.848 156.272L296.259 155.678C296.317 157.171 296.391 158.532 296.469 159.762C296.548 160.992 296.648 162.337 296.769 163.787C296.827 164.623 296.869 165.206 296.89 165.548C296.911 165.884 296.922 166.215 296.922 166.531V166.525ZM292.032 159.494C291.774 160.308 291.459 161.16 291.091 162.043C290.723 162.926 290.229 163.956 289.614 165.128C289.834 165.227 290.003 165.364 290.118 165.543C290.239 165.721 290.297 165.932 290.297 166.168C290.297 166.546 290.166 166.883 289.908 167.182C289.65 167.482 289.34 167.629 288.983 167.629C288.783 167.629 288.615 167.592 288.478 167.524C288.341 167.456 288.241 167.361 288.178 167.24C288.178 167.976 288.32 168.507 288.609 168.833C288.899 169.158 289.361 169.327 289.997 169.327C290.812 169.327 291.448 169.09 291.906 168.612C292.363 168.134 292.589 167.45 292.589 166.557C292.589 166.278 292.579 165.995 292.558 165.706C292.537 165.417 292.5 164.938 292.437 164.26C292.337 163.325 292.258 162.5 292.2 161.785C292.142 161.07 292.079 160.303 292.021 159.489L292.032 159.494Z" fill="#FAA31A"/>
</g>
<defs>
<linearGradient id="paint0_linear_107_2" x1="78.9214" y1="69.0893" x2="321.312" y2="69.0893" gradientUnits="userSpaceOnUse">
<stop stop-color="#FAA31A"/>
<stop offset="0.51" stop-color="#FEC70B"/>
<stop offset="1" stop-color="#FAA31A"/>
</linearGradient>
<linearGradient id="paint1_linear_107_2" x1="82.9856" y1="69.0234" x2="317.247" y2="69.0234" gradientUnits="userSpaceOnUse">
<stop stop-color="#0E1D41"/>
<stop offset="0.52" stop-color="#223463"/>
<stop offset="1" stop-color="#09193B"/>
</linearGradient>
<linearGradient id="paint2_linear_107_2" x1="274.146" y1="52.075" x2="299.456" y2="52.075" gradientUnits="userSpaceOnUse">
<stop stop-color="#0E1D41"/>
<stop offset="0.52" stop-color="#223463"/>
<stop offset="1" stop-color="#09193B"/>
</linearGradient>
<linearGradient id="paint3_linear_107_2" x1="277.269" y1="52.0755" x2="296.339" y2="52.0755" gradientUnits="userSpaceOnUse">
<stop stop-color="#FAA31A"/>
<stop offset="0.51" stop-color="#FEC70B"/>
<stop offset="1" stop-color="#FAA31A"/>
</linearGradient>
<radialGradient id="paint4_radial_107_2" cx="0" cy="0" r="1" gradientUnits="userSpaceOnUse" gradientTransform="translate(53.878 50.6718) rotate(90) scale(33.9494 11.5477)">
<stop offset="0.6" stop-color="#FEC70B"/>
<stop offset="1" stop-color="#FAA71B"/>
</radialGradient>
<radialGradient id="paint5_radial_107_2" cx="0" cy="0" r="1" gradientUnits="userSpaceOnUse" gradientTransform="translate(87.0075 81.1082) scale(19.2387 19.2783)">
<stop stop-color="#FCCE3C"/>
<stop offset="1" stop-color="#FAA71B"/>
</radialGradient>
<radialGradient id="paint6_radial_107_2" cx="0" cy="0" r="1" gradientUnits="userSpaceOnUse" gradientTransform="translate(22.9101 81.1082) scale(25.8946 25.9516)">
<stop stop-color="#FCCE3C"/>
<stop offset="1" stop-color="#FAA71B"/>
</radialGradient>
<radialGradient id="paint7_radial_107_2" cx="0" cy="0" r="1" gradientUnits="userSpaceOnUse" gradientTransform="translate(54.9216 84.7205) scale(26.1898 26.2209)">
<stop stop-color="#FCCE3C"/>
<stop offset="1" stop-color="#FAA71B"/>
</radialGradient>
<linearGradient id="paint8_linear_107_2" x1="37.0186" y1="49.8835" x2="70.1833" y2="49.8835" gradientUnits="userSpaceOnUse">
<stop stop-color="#FAA31A" stop-opacity="0"/>
<stop offset="1" stop-color="#FEF6AC"/>
</linearGradient>
<linearGradient id="paint9_linear_107_2" x1="53.5799" y1="103.882" x2="53.5799" y2="59.9527" gradientUnits="userSpaceOnUse">
<stop stop-color="#FAA31A" stop-opacity="0"/>
<stop offset="1" stop-color="#FEF6AC"/>
</linearGradient>
<radialGradient id="paint10_radial_107_2" cx="0" cy="0" r="1" gradientUnits="userSpaceOnUse" gradientTransform="translate(17.9705 89.6664) scale(15.8568 15.85)">
<stop stop-color="#FEF6AC"/>
<stop offset="1" stop-color="#FAA31A" stop-opacity="0"/>
</radialGradient>
<radialGradient id="paint11_radial_107_2" cx="0" cy="0" r="1" gradientUnits="userSpaceOnUse" gradientTransform="translate(89.8413 0.262831) scale(0.262879 0.262766)">
<stop stop-color="#FEF6AC"/>
<stop offset="1" stop-color="#FAA31A" stop-opacity="0"/>
</radialGradient>
<linearGradient id="paint12_linear_107_2" x1="53.5799" y1="105.847" x2="53.5799" y2="114.529" gradientUnits="userSpaceOnUse">
<stop stop-color="#FAA31A" stop-opacity="0"/>
<stop offset="1" stop-color="#FEF6AC"/>
</linearGradient>
<linearGradient id="paint13_linear_107_2" x1="9.99463" y1="77.6578" x2="26.4245" y2="77.6578" gradientUnits="userSpaceOnUse">
<stop stop-color="#FAA31A" stop-opacity="0"/>
<stop offset="1" stop-color="#FEF6AC"/>
</linearGradient>
<linearGradient id="paint14_linear_107_2" x1="3.24378" y1="81.6572" x2="33.1646" y2="81.6572" gradientUnits="userSpaceOnUse">
<stop stop-color="#FAA31A" stop-opacity="0"/>
<stop offset="1" stop-color="#FEF6AC"/>
</linearGradient>
<linearGradient id="paint15_linear_107_2" x1="75.3252" y1="82.2773" x2="103.038" y2="81.0412" gradientUnits="userSpaceOnUse">
<stop stop-color="#FAA31A" stop-opacity="0"/>
<stop offset="1" stop-color="#FEF6AC"/>
</linearGradient>
<linearGradient id="paint16_linear_107_2" x1="75.1571" y1="78.4566" x2="102.864" y2="77.2206" gradientUnits="userSpaceOnUse">
<stop stop-color="#FAA31A" stop-opacity="0"/>
<stop offset="1" stop-color="#FEF6AC"/>
</linearGradient>
<clipPath id="clip0_107_2">
<rect width="327" height="172" fill="white"/>
</clipPath>
</defs>
</svg>
