<svg width="434" height="514" viewBox="0 0 434 514" fill="none" xmlns="http://www.w3.org/2000/svg">
<g clip-path="url(#clip0_28_321)">
<path d="M192.294 384.002V353.05H186.714V346.969H206.062V353.05H200.527V384.002H192.294Z" fill="white"/>
<path d="M208.303 384.002V346.969H216.492V361.967H222.256V346.969H230.445V384.002H222.256V367.815H216.492V384.002H208.303Z" fill="white"/>
<path d="M234.924 384.002V346.969H251.575V352.546H243.112V361.734H249.563V367.404H243.112V378.469H251.667V384.002H234.924Z" fill="white"/>
<path d="M9.18945 465.338V392.719H25.2437V454.489H41.9261V465.338H9.18945Z" fill="white"/>
<path d="M46.6833 465.338V392.719H79.3339V403.657H62.7408V421.676H75.3865V432.792H62.7408V454.489H79.5124V465.338H46.6833Z" fill="white"/>
<path d="M84.2634 465.338L85.5197 392.719H102.741L110.725 434.947L119.334 392.719H135.927L137.183 465.338H125.791L124.445 417.016L116.015 465.338H105.878L96.9091 416.656L95.8314 465.338H84.2603H84.2634Z" fill="white"/>
<path d="M185.081 466.415C180.059 466.415 176.096 465.37 173.198 463.276C170.296 461.185 168.233 458.24 167.009 454.445C165.781 450.649 165.169 446.273 165.169 441.311V416.924C165.169 411.783 165.826 407.331 167.143 403.564C168.456 399.8 170.714 396.884 173.915 394.822C177.113 392.76 181.462 391.728 186.966 391.728C192.469 391.728 196.576 392.623 199.659 394.417C202.739 396.212 204.936 398.691 206.253 401.859C207.567 405.027 208.227 408.733 208.227 412.975V417.638H192.53V411.72C192.53 410.164 192.424 408.73 192.214 407.417C192.004 406.104 191.525 405.043 190.779 404.233C190.03 403.427 188.821 403.022 187.147 403.022C185.473 403.022 184.157 403.488 183.379 404.412C182.601 405.339 182.106 406.49 181.899 407.863C181.689 409.24 181.587 410.674 181.587 412.166V445.785C181.587 447.398 181.749 448.909 182.081 450.314C182.409 451.72 183.009 452.854 183.876 453.721C184.743 454.588 185.984 455.021 187.597 455.021C189.21 455.021 190.556 454.572 191.455 453.677C192.351 452.781 192.979 451.615 193.34 450.18C193.697 448.746 193.878 447.223 193.878 445.607V437.091H187.329V427.677H208.319V465.331H197.737L196.841 459.324C195.884 461.357 194.478 463.043 192.625 464.388C190.77 465.733 188.26 466.405 185.091 466.405L185.081 466.415Z" fill="white"/>
<path d="M212.617 465.338L226.341 392.719H244.64L258.185 465.338H243.384L240.963 450.008H230.288L227.776 465.338H212.617ZM231.723 440.415H239.436L235.578 412.086L231.72 440.415H231.723Z" fill="white"/>
<path d="M263.296 465.338V392.719H283.298C288.201 392.719 292.445 393.257 296.036 394.331C299.623 395.409 302.419 397.334 304.422 400.113C306.424 402.892 307.425 406.821 307.425 411.901C307.425 414.891 307.186 417.549 306.708 419.882C306.229 422.211 305.346 424.229 304.061 425.934C302.776 427.636 300.936 429.057 298.545 430.192L308.5 465.335H291.907L283.922 432.789H279.347V465.335H263.293L263.296 465.338ZM279.35 423.559H283.836C286.107 423.559 287.873 423.155 289.129 422.348C290.386 421.542 291.266 420.376 291.776 418.852C292.283 417.329 292.538 415.49 292.538 413.339C292.538 410.231 291.967 407.809 290.832 406.075C289.697 404.342 287.602 403.475 284.554 403.475H279.35V423.556V423.559Z" fill="white"/>
<path d="M334.965 466.415C329.461 466.415 325.112 465.414 321.914 463.413C318.713 461.412 316.455 458.601 315.141 454.987C313.825 451.369 313.168 447.111 313.168 442.21V416.032C313.168 411.012 313.825 406.694 315.141 403.077C316.455 399.463 318.713 396.668 321.914 394.695C325.112 392.722 329.461 391.737 334.965 391.737C340.468 391.737 344.546 392.62 347.566 394.382C350.585 396.145 352.725 398.612 353.978 401.78C355.234 404.947 355.862 408.593 355.862 412.717V418.993H340.165V411.729C340.165 410.295 340.088 408.922 339.942 407.605C339.792 406.292 339.358 405.199 338.641 404.332C337.923 403.469 336.696 403.032 334.965 403.032C333.233 403.032 332.05 403.481 331.243 404.377C330.437 405.272 329.927 406.394 329.719 407.739C329.509 409.084 329.407 410.506 329.407 411.997V446.155C329.407 447.768 329.541 449.25 329.812 450.592C330.08 451.937 330.619 453.014 331.425 453.82C332.232 454.626 333.412 455.031 334.968 455.031C336.642 455.031 337.837 454.598 338.555 453.731C339.272 452.864 339.722 451.745 339.9 450.369C340.079 448.995 340.168 447.59 340.168 446.155V438.535H355.865V444.81C355.865 448.934 355.253 452.625 354.026 455.882C352.798 459.139 350.678 461.711 347.658 463.591C344.638 465.475 340.407 466.415 334.965 466.415Z" fill="white"/>
<path d="M362.498 465.338V392.719H378.552V465.338H362.498Z" fill="white"/>
<path d="M383.666 465.338L397.389 392.719H415.688L429.233 465.338H414.432L412.012 450.008H401.337L398.824 465.338H383.666ZM402.772 440.415H410.485L406.627 412.086L402.768 440.415H402.772Z" fill="white"/>
<path d="M0 513.452L6.99882 476.419H16.3316L23.238 513.452H15.6907L14.4568 505.634H9.01397L7.73218 513.452H0ZM9.74414 500.742H13.6788L11.7115 486.295L9.74414 500.742Z" fill="white"/>
<path d="M35.8613 514C33.0554 514 30.8362 513.49 29.2068 512.467C27.5743 511.447 26.4233 510.013 25.7537 508.168C25.0841 506.322 24.7461 504.152 24.7461 501.653V488.303C24.7461 485.744 25.0809 483.542 25.7537 481.696C26.4233 479.851 27.5743 478.426 29.2068 477.422C30.8394 476.415 33.0554 475.915 35.8613 475.915C38.6672 475.915 40.7493 476.364 42.2894 477.263C43.8294 478.162 44.9199 479.421 45.5608 481.037C46.2017 482.652 46.5205 484.51 46.5205 486.614V489.814H38.5142V486.11C38.5142 485.38 38.4759 484.679 38.3994 484.007C38.3228 483.338 38.1028 482.78 37.7362 482.337C37.3695 481.894 36.7445 481.674 35.8613 481.674C34.9781 481.674 34.3754 481.903 33.9641 482.359C33.5528 482.815 33.2945 483.389 33.1861 484.074C33.0777 484.759 33.0267 485.482 33.0267 486.244V503.664C33.0267 504.487 33.0937 505.242 33.234 505.927C33.3711 506.612 33.6453 507.16 34.0566 507.575C34.4679 507.989 35.0705 508.193 35.8645 508.193C36.719 508.193 37.328 507.973 37.6947 507.53C38.0614 507.09 38.2878 506.517 38.3802 505.815C38.4727 505.114 38.5173 504.397 38.5173 503.667V499.782H46.5237V502.982C46.5237 505.086 46.2113 506.969 45.5863 508.63C44.9614 510.29 43.8773 511.6 42.3372 512.562C40.7971 513.522 38.6385 514.003 35.8645 514.003L35.8613 514Z" fill="white"/>
<path d="M60.4704 514C57.6645 514 55.4453 513.49 53.816 512.467C52.1835 511.447 51.0324 510.013 50.3628 508.168C49.6932 506.322 49.3552 504.152 49.3552 501.653V488.303C49.3552 485.744 49.69 483.542 50.3628 481.696C51.0324 479.851 52.1835 478.426 53.816 477.422C55.4485 476.415 57.6645 475.915 60.4704 475.915C63.2763 475.915 65.3584 476.364 66.8985 477.263C68.4386 478.162 69.529 479.421 70.1699 481.037C70.8108 482.652 71.1297 484.51 71.1297 486.614V489.814H63.1233V486.11C63.1233 485.38 63.085 484.679 63.0085 484.007C62.932 483.338 62.712 482.78 62.3453 482.337C61.9786 481.894 61.3537 481.674 60.4704 481.674C59.5872 481.674 58.9846 481.903 58.5733 482.359C58.1619 482.815 57.9037 483.389 57.7953 484.074C57.6868 484.759 57.6358 485.482 57.6358 486.244V503.664C57.6358 504.487 57.7028 505.242 57.8431 505.927C57.9802 506.612 58.2544 507.16 58.6657 507.575C59.077 507.989 59.6797 508.193 60.4736 508.193C61.3281 508.193 61.9372 507.973 62.3038 507.53C62.6705 507.09 62.8969 506.517 62.9894 505.815C63.0818 505.114 63.1265 504.397 63.1265 503.667V499.782H71.1329V502.982C71.1329 505.086 70.8204 506.969 70.1954 508.63C69.5705 510.29 68.4864 511.6 66.9463 512.562C65.4063 513.522 63.2476 514.003 60.4736 514.003L60.4704 514Z" fill="white"/>
<path d="M74.5127 513.452V476.419H82.7008V513.452H74.5127Z" fill="white"/>
<path d="M87.0916 513.452V476.419H96.469C99.7022 476.419 102.218 476.824 104.016 477.63C105.815 478.44 107.08 479.702 107.814 481.426C108.547 483.147 108.911 485.381 108.911 488.125V501.568C108.911 504.34 108.544 506.606 107.814 508.356C107.084 510.109 105.824 511.396 104.042 512.219C102.256 513.041 99.7659 513.452 96.5615 513.452H87.0916ZM95.2797 507.782H96.5615C97.8114 507.782 98.7105 507.601 99.259 507.234C99.8074 506.868 100.152 506.319 100.289 505.59C100.426 504.857 100.496 503.942 100.496 502.846V486.707C100.496 485.61 100.413 484.724 100.244 484.055C100.075 483.386 99.7181 482.898 99.1697 482.592C98.6213 482.286 97.7349 482.136 96.5168 482.136H95.2829V507.785L95.2797 507.782Z" fill="white"/>
<path d="M112.753 513.452V476.419H129.403V481.996H120.941V491.184H127.391V496.854H120.941V507.919H129.496V513.452H112.753Z" fill="white"/>
<path d="M132.056 513.452V476.419H137.821L145.413 494.25V476.419H152.182V513.452H146.647L139.055 494.25V513.452H132.056Z" fill="white"/>
<path d="M159.914 513.452V482.5H154.334V476.419H173.682V482.5H168.147V513.452H159.914Z" fill="white"/>
<path d="M186.354 513.452V476.419H194.542V507.919H203.049V513.452H186.354Z" fill="white"/>
<path d="M203.689 513.452L210.688 476.419H220.021L226.927 513.452H219.38L218.146 505.634H212.703L211.422 513.452H203.689ZM213.434 500.742H217.368L215.401 486.295L213.434 500.742Z" fill="white"/>
<path d="M231.592 513.452L227.109 476.419H234.063L236.26 497.998L239.05 476.464H244.493L247.42 497.861L249.662 476.419H256.523L252.085 513.452H244.949L241.792 491.095L238.821 513.452H231.592Z" fill="white"/>
<path d="M269.925 513.452V476.419H282.366C284.592 476.419 286.422 476.84 287.854 477.678C289.286 478.516 290.354 479.737 291.055 481.337C291.757 482.936 292.107 484.88 292.107 487.166C292.107 490.031 291.636 492.217 290.689 493.728C289.742 495.235 288.463 496.28 286.846 496.86C285.23 497.44 283.415 497.73 281.404 497.73H278.11V513.458H269.922L269.925 513.452ZM278.113 492.01H280.858C281.866 492.01 282.628 491.828 283.144 491.462C283.661 491.095 284.005 490.547 284.174 489.814C284.343 489.084 284.426 488.154 284.426 487.025C284.426 486.082 284.359 485.25 284.219 484.533C284.082 483.816 283.753 483.245 283.237 482.818C282.717 482.391 281.911 482.178 280.814 482.178H278.116V492.007L278.113 492.01Z" fill="white"/>
<path d="M305.512 513.999C302.738 513.999 300.541 513.512 298.924 512.537C297.308 511.561 296.15 510.159 295.449 508.33C294.747 506.5 294.397 504.321 294.397 501.793V488.032C294.397 485.473 294.747 483.293 295.449 481.495C296.15 479.698 297.308 478.318 298.924 477.358C300.541 476.399 302.735 475.918 305.512 475.918C308.289 475.918 310.537 476.399 312.166 477.358C313.799 478.318 314.963 479.698 315.664 481.495C316.366 483.293 316.716 485.473 316.716 488.032V501.793C316.716 504.324 316.366 506.504 315.664 508.33C314.963 510.159 313.796 511.561 312.166 512.537C310.534 513.512 308.315 513.999 305.512 513.999ZM305.512 508.193C306.366 508.193 306.991 507.979 307.387 507.552C307.782 507.125 308.04 506.577 308.165 505.904C308.286 505.235 308.347 504.55 308.347 503.846V486.014C308.347 485.285 308.286 484.59 308.165 483.933C308.044 483.277 307.782 482.738 307.387 482.311C306.991 481.884 306.363 481.67 305.512 481.67C304.718 481.67 304.125 481.884 303.726 482.311C303.331 482.738 303.07 483.28 302.948 483.933C302.827 484.59 302.767 485.281 302.767 486.014V503.846C302.767 504.547 302.821 505.232 302.926 505.904C303.031 506.574 303.277 507.125 303.656 507.552C304.036 507.979 304.654 508.193 305.509 508.193H305.512Z" fill="white"/>
<path d="M320.562 513.452V476.419H329.939C333.172 476.419 335.688 476.824 337.486 477.63C339.285 478.44 340.551 479.702 341.284 481.426C342.017 483.147 342.381 485.381 342.381 488.125V501.568C342.381 504.34 342.014 506.606 341.284 508.356C340.554 510.109 339.294 511.396 337.512 512.219C335.726 513.041 333.236 513.452 330.032 513.452H320.562ZM328.75 507.782H330.032C331.282 507.782 332.181 507.601 332.729 507.234C333.278 506.868 333.622 506.319 333.759 505.59C333.896 504.857 333.966 503.942 333.966 502.846V486.707C333.966 485.61 333.883 484.724 333.714 484.055C333.545 483.386 333.188 482.898 332.64 482.592C332.091 482.286 331.205 482.136 329.987 482.136H328.753V507.785L328.75 507.782Z" fill="white"/>
<path d="M356.834 514C354.029 514 351.809 513.49 350.18 512.467C348.547 511.447 347.396 510.013 346.727 508.168C346.057 506.322 345.719 504.152 345.719 501.653V488.303C345.719 485.744 346.054 483.542 346.727 481.696C347.396 479.851 348.547 478.426 350.18 477.422C351.813 476.415 354.029 475.915 356.834 475.915C359.64 475.915 361.722 476.364 363.263 477.263C364.803 478.162 365.893 479.421 366.534 481.037C367.175 482.652 367.494 484.51 367.494 486.614V489.814H359.487V486.11C359.487 485.38 359.449 484.679 359.372 484.007C359.296 483.338 359.076 482.78 358.709 482.337C358.343 481.894 357.718 481.674 356.834 481.674C355.951 481.674 355.349 481.903 354.937 482.359C354.526 482.815 354.268 483.389 354.159 484.074C354.051 484.759 354 485.482 354 486.244V503.664C354 504.487 354.067 505.242 354.207 505.927C354.344 506.612 354.618 507.16 355.03 507.575C355.441 507.989 356.044 508.193 356.838 508.193C357.692 508.193 358.301 507.973 358.668 507.53C359.035 507.09 359.261 506.517 359.353 505.815C359.446 505.114 359.49 504.397 359.49 503.667V499.782H367.497V502.982C367.497 505.086 367.184 506.969 366.559 508.63C365.934 510.29 364.85 511.6 363.31 512.562C361.77 513.522 359.612 514.003 356.838 514.003L356.834 514Z" fill="white"/>
<path d="M369.047 513.452L376.045 476.419H385.378L392.285 513.452H384.737L383.503 505.634H378.061L376.779 513.452H369.047ZM378.791 500.742H382.725L380.758 486.295L378.791 500.742Z" fill="white"/>
<path d="M404.359 514C402.041 514 400.106 513.589 398.55 512.766C396.994 511.944 395.821 510.672 395.027 508.948C394.233 507.227 393.793 504.993 393.7 502.249L400.699 501.198C400.728 502.781 400.874 504.063 401.133 505.038C401.391 506.013 401.758 506.714 402.23 507.141C402.701 507.568 403.275 507.782 403.945 507.782C404.799 507.782 405.354 507.492 405.616 506.912C405.874 506.332 406.005 505.723 406.005 505.082C406.005 503.559 405.638 502.272 404.908 501.22C404.178 500.168 403.186 499.11 401.933 498.042L398.732 495.254C397.329 494.065 396.146 492.717 395.186 491.206C394.226 489.696 393.745 487.831 393.745 485.607C393.745 482.467 394.676 480.068 396.535 478.407C398.394 476.747 400.925 475.915 404.127 475.915C406.11 475.915 407.701 476.25 408.906 476.922C410.112 477.591 411.027 478.468 411.652 479.551C412.277 480.635 412.704 481.776 412.933 482.981C413.163 484.185 413.291 485.336 413.322 486.432L406.279 487.302C406.247 486.206 406.18 485.253 406.072 484.443C405.963 483.637 405.743 483.012 405.408 482.57C405.074 482.13 404.554 481.907 403.852 481.907C403.09 481.907 402.532 482.225 402.182 482.866C401.831 483.506 401.656 484.147 401.656 484.788C401.656 486.158 401.984 487.28 402.638 488.147C403.294 489.017 404.155 489.922 405.224 490.868L408.288 493.565C409.904 494.935 411.269 496.49 412.382 498.227C413.495 499.964 414.053 502.112 414.053 504.675C414.053 506.411 413.657 507.989 412.863 509.407C412.069 510.825 410.95 511.944 409.503 512.766C408.055 513.589 406.34 514 404.356 514H404.359Z" fill="white"/>
<path d="M420.232 513.452V482.5H414.652V476.419H434V482.5H428.465V513.452H420.232Z" fill="white"/>
<path d="M216.52 35.4648C118.415 35.4648 38.884 114.958 38.884 213.016C38.884 263.039 59.5808 308.228 92.8786 340.499C93.8957 341.487 94.9256 342.463 95.9682 343.419L142.03 320.737L144.233 292.458C137.247 285.01 131.163 269.388 128.711 262.517H128.622C125.086 262.517 123.064 260.952 121.993 259.635C119.066 256.053 119.86 250.68 120.922 245.482C121.438 242.955 119.7 237.403 117.857 231.526C116.011 225.637 113.916 218.96 112.727 211.646C111.391 203.445 114.946 196.724 122.538 192.833C122.446 190.806 122.398 188.788 122.398 186.8C122.398 157.591 132.11 130.103 149.749 109.397C158.377 99.2655 168.443 91.3043 179.661 85.7335C191.331 79.9395 203.731 77.0042 216.52 77.0042C229.309 77.0042 241.709 79.9395 253.379 85.7335C264.597 91.3043 274.663 99.2655 283.291 109.397C300.93 130.103 310.642 157.591 310.642 186.8C310.642 188.788 310.594 190.809 310.499 192.833C318.094 196.721 321.649 203.445 320.313 211.646C319.124 218.96 317.029 225.637 315.183 231.526C313.34 237.403 311.599 242.955 312.118 245.482C313.18 250.68 313.974 256.053 311.047 259.635C309.976 260.952 307.954 262.517 304.418 262.517H304.329C301.874 269.388 295.793 285.01 288.807 292.458L291.007 320.737L337.072 343.422C338.115 342.463 339.144 341.487 340.162 340.499C373.459 308.228 394.156 263.039 394.156 213.016C394.156 114.958 314.625 35.4648 216.52 35.4648Z" fill="white"/>
<path d="M294.805 318.165L292.914 293.838C296.46 289.613 300.015 283.36 303.704 274.879C305.097 271.676 306.284 268.661 307.196 266.236C309.992 265.684 312.399 264.282 314.137 262.156C318.496 256.818 316.956 249.246 316.028 244.708C316.009 244.571 315.938 243.656 316.557 241.036C317.109 238.706 318.021 235.797 318.987 232.715C320.779 226.997 323.011 219.881 324.248 212.286C325.294 205.871 323.856 200.039 320.093 195.417C318.588 193.563 316.739 191.944 314.574 190.567C314.609 189.305 314.628 188.046 314.628 186.8C314.628 171.595 312.087 156.829 307.074 142.915C302.209 129.408 295.226 117.263 286.327 106.816C277.345 96.2697 266.857 87.9771 255.152 82.1672C242.928 76.096 229.931 73.0205 216.52 73.0205C203.109 73.0205 190.113 76.096 177.888 82.1672C166.183 87.9771 155.696 96.2697 146.714 106.816C137.811 117.263 130.832 129.408 125.966 142.915C120.954 156.829 118.412 171.595 118.412 186.8C118.412 188.046 118.428 189.305 118.467 190.567C116.298 191.944 114.452 193.563 112.944 195.417C109.185 200.039 107.747 205.871 108.793 212.286C110.03 219.881 112.259 226.997 114.054 232.715C115.02 235.797 115.932 238.706 116.48 241.036C117.102 243.653 117.029 244.571 117.013 244.708C116.085 249.246 114.545 256.815 118.903 262.156C120.641 264.282 123.045 265.684 125.845 266.236C126.754 268.661 127.943 271.676 129.336 274.879C133.025 283.36 136.581 289.613 140.126 293.838L138.232 318.165L92.8787 340.499C93.8958 341.487 94.9257 342.463 95.9683 343.419C97.0174 344.394 98.0791 345.353 99.1537 346.293L145.827 323.309L148.349 290.913C139.705 283.353 131.425 258.157 131.425 258.157C130.353 258.415 129.426 258.533 128.622 258.533C122.682 258.533 123.661 251.987 124.828 246.279C126.154 239.8 119.181 226.484 116.659 211.005C115.147 201.715 121.419 197.352 126.677 195.35C126.486 192.53 126.384 189.681 126.384 186.8C126.384 128.363 166.738 80.988 216.52 80.988C266.303 80.988 306.657 128.363 306.657 186.8C306.657 189.681 306.555 192.53 306.363 195.35C311.621 197.352 317.893 201.715 316.378 211.005C313.86 226.484 306.886 239.8 308.213 246.279C309.38 251.987 310.359 258.533 304.418 258.533C303.615 258.533 302.687 258.415 301.616 258.157C301.616 258.157 293.332 283.353 284.691 290.913L287.21 323.309L333.887 346.293C334.961 345.353 336.023 344.394 337.072 343.422C338.115 342.463 339.145 341.487 340.162 340.499L294.805 318.165Z" fill="white"/>
<path d="M395.84 137.299C386.038 114.136 372.006 93.3314 354.134 75.4682C336.262 57.6051 315.451 43.579 292.273 33.7822C268.28 23.638 242.79 18.4941 216.52 18.4941C190.25 18.4941 164.761 23.638 140.764 33.7822C117.59 43.579 96.7783 57.6051 78.9066 75.4682C61.0349 93.3314 47.0022 114.136 37.2006 137.299C27.0516 161.281 21.9053 186.758 21.9053 213.016C21.9053 239.274 27.0516 264.751 37.2006 288.736C46.6132 310.978 59.9253 331.044 76.7958 348.419L82.8189 345.455C65.8113 328.309 52.445 308.394 43.0739 286.253C33.2564 263.058 28.2823 238.42 28.2823 213.016C28.2823 187.612 33.2564 162.977 43.0739 139.782C52.5534 117.377 66.1269 97.2546 83.4151 79.9746C100.703 62.6947 120.836 49.1276 143.251 39.6527C166.454 29.8431 191.108 24.8681 216.52 24.8681C241.933 24.8681 266.586 29.8431 289.789 39.6527C312.205 49.1276 332.337 62.6947 349.625 79.9746C366.913 97.2546 380.487 117.377 389.967 139.782C399.781 162.977 404.758 187.616 404.758 213.016C404.758 238.417 399.781 263.058 389.967 286.253C380.595 308.394 367.229 328.309 350.222 345.455L356.245 348.419C373.115 331.044 386.427 310.978 395.84 288.736C405.989 264.751 411.135 239.277 411.135 213.016C411.135 186.755 405.989 161.281 395.84 137.299Z" fill="white"/>
<path d="M412.889 130.1C402.156 104.735 386.787 81.9538 367.216 62.392C347.645 42.8301 324.853 27.472 299.476 16.7413C273.199 5.63144 245.29 0 216.52 0C187.75 0 159.841 5.63144 133.564 16.7413C108.183 27.472 85.3919 42.8301 65.8207 62.392C46.2495 81.9538 30.884 104.735 20.1514 130.1C9.03623 156.364 3.4021 184.263 3.4021 213.016C3.4021 241.769 9.03623 269.668 20.1514 295.932C30.0646 319.363 43.9283 340.586 61.4142 359.105C64.0415 355.88 66.3628 353.961 67.0292 353.439C50.283 335.658 36.9996 315.297 27.4914 292.831C16.7971 267.552 11.3734 240.702 11.3734 213.016C11.3734 185.331 16.7971 158.48 27.4914 133.204C37.8254 108.788 52.617 86.8586 71.458 68.0266C90.299 49.1914 112.239 34.4069 136.67 24.081C161.958 13.3886 188.825 7.96751 216.52 7.96751C244.216 7.96751 271.082 13.3886 296.37 24.081C320.801 34.4069 342.738 49.1914 361.582 68.0266C380.423 86.8586 395.215 108.788 405.549 133.204C416.243 158.48 421.667 185.334 421.667 213.016C421.667 240.698 416.243 267.552 405.549 292.831C396.041 315.297 382.757 335.658 366.011 353.439C366.677 353.961 368.999 355.88 371.626 359.105C389.109 340.586 402.976 319.363 412.889 295.932C424.004 269.668 429.638 241.773 429.638 213.016C429.638 184.26 424.004 156.364 412.889 130.1Z" fill="white"/>
<path d="M223.43 334.871H209.607C190.014 334.871 174.074 319.771 174.074 301.213V273.333H182.632V301.213C182.632 315.057 194.733 326.32 209.607 326.32H223.43C238.304 326.32 250.405 315.057 250.405 301.213V273.333H258.963V301.213C258.963 319.771 243.023 334.871 223.43 334.871Z" fill="white"/>
<path d="M217.601 199.127H215.426C199.356 199.127 186.21 212.267 186.21 228.329V292.78C186.21 308.843 199.356 321.983 215.426 321.983H217.601C233.671 321.983 246.817 308.843 246.817 292.78V228.329C246.817 212.267 233.671 199.127 217.601 199.127ZM238.46 235.526L223.685 234.742C221.902 234.649 220.375 236.017 220.283 237.808C220.19 239.589 221.558 241.116 223.344 241.208L238.464 242.011V247.273L223.688 246.489C221.906 246.397 220.378 247.764 220.286 249.555C220.193 251.336 221.561 252.857 223.347 252.955L238.467 253.752V259.02L223.691 258.236C221.909 258.144 220.381 259.511 220.289 261.296C220.196 263.084 221.564 264.604 223.35 264.696L238.47 265.499V270.761L223.694 269.984C221.912 269.885 220.385 271.258 220.292 273.043C220.292 273.104 220.286 273.155 220.286 273.215C220.286 274.927 221.628 276.354 223.353 276.447L238.473 277.25V283.455C231.522 282.534 224.086 282.034 216.357 282.034C208.628 282.034 201.206 282.534 194.267 283.455V277.237L209.161 276.447C210.943 276.354 212.314 274.828 212.222 273.046C212.13 271.322 210.701 269.98 208.998 269.98C208.938 269.98 208.88 269.98 208.82 269.987L194.267 270.748V265.487L209.161 264.696C210.943 264.604 212.314 263.084 212.222 261.296C212.13 259.514 210.602 258.144 208.82 258.236L194.267 259.008V253.739L209.161 252.955C210.943 252.857 212.314 251.336 212.222 249.555C212.13 247.767 210.602 246.397 208.82 246.489L194.267 247.26V241.999L209.161 241.208C210.943 241.116 212.314 239.589 212.222 237.808C212.13 236.02 210.602 234.649 208.82 234.742L194.267 235.513V230.678C194.267 230.535 194.267 230.388 194.274 230.251L209.161 229.461C210.943 229.368 212.314 227.842 212.222 226.06C212.13 224.279 210.602 222.902 208.82 223.001L195.399 223.705C198.342 214.941 206.648 208.586 216.37 208.586C226.092 208.586 234.405 214.947 237.341 223.718L223.697 223.001C221.915 222.902 220.388 224.276 220.295 226.06C220.203 227.842 221.571 229.368 223.356 229.461L238.47 230.264C238.476 230.401 238.476 230.541 238.476 230.678V235.526H238.46Z" fill="white"/>
</g>
<defs>
<clipPath id="clip0_28_321">
<rect width="217" height="257" fill="white" transform="scale(2)"/>
</clipPath>
</defs>
</svg>
