<svg width="942" height="431" viewBox="0 0 942 431" fill="none" xmlns="http://www.w3.org/2000/svg">
<path d="M55.96 22.3991V-0.000183016H161.409V22.3991H122.124V128.365H95.3309V22.3991H55.96ZM167.746 128.365V-0.000183016H194.797V52.9827H249.934V-0.000183016H276.985V128.365H249.934V75.2958H194.797V128.365H167.746ZM288.233 128.365V-0.000183016H374.729V22.3991H315.285V52.5519H370.249V74.5204H315.285V105.965H374.901V128.365H288.233ZM410.233 22.3991V-0.000183016H515.682V22.3991H476.397V128.365H449.604V22.3991H410.233ZM522.019 128.365V-0.000183016H608.515V22.3991H549.071V52.5519H604.035V74.5204H549.071V105.965H608.687V128.365H522.019ZM641.128 128.365H612.095L656.377 -0.000183016H691.354L735.55 128.365H706.603L674.383 29.2911H673.349L641.128 128.365ZM639.405 77.8803H708.068V99.0734H639.405V77.8803ZM739.906 -0.000183016H773.418L808.74 86.2369H810.205L845.613 -0.000183016H879.212V128.365H852.677V44.7983H851.643L818.303 127.762H800.383L767.302 44.626H766.268V128.365H739.906V-0.000183016ZM-0.000259876 278.365V150H51.3457C60.7649 150 68.6333 151.407 74.9511 154.221C81.2688 157.035 86.0071 160.912 89.166 165.852C92.3823 170.791 93.9904 176.477 93.9904 182.909C93.9904 187.906 92.9566 192.3 90.889 196.091C88.8788 199.881 86.122 202.983 82.6185 205.395C79.1725 207.807 75.2095 209.501 70.7297 210.478V211.77C75.6116 212 80.2063 213.378 84.5138 215.905C88.8214 218.432 92.2961 221.993 94.9381 226.588C97.6375 231.125 98.9872 236.553 98.9872 242.871C98.9872 249.648 97.2929 255.736 93.9043 261.135C90.5731 266.476 85.6338 270.697 79.0863 273.799C72.5388 276.843 64.4407 278.365 54.7918 278.365H-0.000259876ZM27.0511 256.224H49.2781C56.8019 256.224 62.2869 254.759 65.7329 251.83C69.2364 248.901 70.9881 245.024 70.9881 240.2C70.9881 236.639 70.1266 233.509 68.4036 230.809C66.738 228.053 64.3258 225.899 61.1669 224.348C58.0081 222.797 54.2461 222.022 49.8811 222.022H27.0511V256.224ZM27.0511 203.758H47.2105C50.9437 203.758 54.2461 203.098 57.1178 201.777C60.047 200.456 62.3443 198.589 64.0099 196.177C65.6755 193.707 66.5083 190.778 66.5083 187.389C66.5083 182.795 64.8714 179.09 61.5977 176.276C58.3814 173.404 53.7579 171.968 47.7274 171.968H27.0511V203.758ZM105.497 278.365V150H191.992V172.399H132.548V202.552H187.512V224.52H132.548V255.965H192.165V278.365H105.497ZM202.551 278.365V150H229.602V202.983H284.739V150H311.79V278.365H284.739V225.296H229.602V278.365H202.551ZM350.09 150V278.365H323.038V150H350.09ZM468.682 150V278.365H445.249L389.509 197.641H388.389V278.365H361.338V150H385.115L440.51 230.723H441.63V150H468.682ZM525.417 278.365H491.991V255.104H524.211C532.309 255.104 539.086 253.697 544.543 250.883C550.056 248.011 554.192 243.56 556.948 237.529C559.763 231.441 561.17 223.63 561.17 214.096C561.17 204.62 559.763 196.866 556.948 190.835C554.192 184.805 550.056 180.382 544.543 177.568C539.086 174.696 532.338 173.261 524.297 173.261H491.474V150H525.848C538.771 150 549.884 152.584 559.188 157.753C568.493 162.865 575.643 170.217 580.64 179.808C585.637 189.342 588.135 200.771 588.135 214.096C588.135 227.478 585.608 238.965 580.554 248.557C575.557 258.148 568.378 265.528 559.016 270.697C549.654 275.809 538.455 278.365 525.417 278.365ZM506.981 150V278.365H479.929V150H506.981ZM622.089 172.399V150H727.538V172.399H688.253V278.365H661.46V172.399H622.089ZM733.875 278.365V150H760.926V202.983H816.063V150H843.114V278.365H816.063V225.296H760.926V278.365H733.875ZM854.362 278.365V150H940.858V172.399H881.414V202.552H936.378V224.52H881.414V255.965H941.03V278.365H854.362ZM75.2199 428.365V300H125.79C135.497 300 143.767 301.866 150.602 305.6C157.494 309.275 162.749 314.387 166.368 320.935C170.043 327.482 171.881 335.035 171.881 343.592C171.881 352.092 170.043 359.588 166.368 366.078C162.692 372.568 157.35 377.651 150.343 381.326C143.394 384.945 134.98 386.754 125.101 386.754H92.8808V365.044H120.708C125.934 365.044 130.242 364.125 133.63 362.287C137.076 360.449 139.632 357.922 141.298 354.706C143.021 351.489 143.882 347.785 143.882 343.592C143.882 339.285 143.021 335.551 141.298 332.393C139.632 329.176 137.076 326.678 133.63 324.897C130.184 323.117 125.848 322.227 120.621 322.227H102.271V428.365H75.2199ZM236.284 430.088C224.912 430.088 214.689 427.503 205.615 422.334C196.54 417.165 189.361 409.67 184.077 399.849C178.793 390.028 176.151 378.167 176.151 364.268C176.151 350.255 178.793 338.337 184.077 328.516C189.361 318.637 196.54 311.142 205.615 306.03C214.689 300.861 224.912 298.277 236.284 298.277C247.656 298.277 257.879 300.861 266.954 306.03C276.029 311.142 283.179 318.637 288.406 328.516C293.69 338.337 296.331 350.255 296.331 364.268C296.331 378.225 293.69 390.114 288.406 399.935C283.179 409.756 276.029 417.251 266.954 422.42C257.879 427.532 247.656 430.088 236.284 430.088ZM236.284 406.138C242.889 406.138 248.633 404.53 253.514 401.313C258.396 398.097 262.158 393.387 264.8 387.185C267.5 380.924 268.849 373.286 268.849 364.268C268.849 355.194 267.5 347.526 264.8 341.266C262.158 335.006 258.396 330.268 253.514 327.051C248.633 323.835 242.889 322.227 236.284 322.227C229.737 322.227 224.022 323.835 219.14 327.051C214.258 330.268 210.439 335.006 207.682 341.266C204.983 347.526 203.633 355.194 203.633 364.268C203.633 373.286 204.983 380.924 207.682 387.185C210.439 393.387 214.258 398.097 219.14 401.313C224.022 404.53 229.737 406.138 236.284 406.138ZM350.827 428.365H317.401V405.104H349.621C357.719 405.104 364.496 403.697 369.953 400.883C375.466 398.011 379.602 393.56 382.358 387.529C385.173 381.441 386.58 373.63 386.58 364.096C386.58 354.62 385.173 346.866 382.358 340.835C379.602 334.805 375.466 330.382 369.953 327.568C364.496 324.696 357.748 323.261 349.707 323.261H316.884V300H351.258C364.181 300 375.294 302.584 384.598 307.753C393.903 312.865 401.053 320.217 406.05 329.808C411.047 339.342 413.545 350.771 413.545 364.096C413.545 377.478 411.018 388.965 405.964 398.557C400.967 408.148 393.788 415.528 384.426 420.697C375.064 425.809 363.865 428.365 350.827 428.365ZM332.391 300V428.365H305.339V300H332.391ZM480.016 430.088C468.644 430.088 458.449 427.503 449.432 422.334C440.415 417.165 433.293 409.67 428.067 399.849C422.84 390.028 420.227 378.167 420.227 364.268C420.227 350.255 422.84 338.337 428.067 328.516C433.351 318.637 440.501 311.142 449.518 306.03C458.593 300.861 468.759 298.277 480.016 298.277C487.482 298.277 494.403 299.339 500.778 301.464C507.153 303.532 512.782 306.576 517.664 310.596C522.603 314.559 526.623 319.441 529.725 325.242C532.826 330.985 534.808 337.562 535.669 344.971H508.273C507.756 341.467 506.722 338.308 505.172 335.494C503.678 332.68 501.697 330.296 499.227 328.343C496.815 326.391 494.03 324.897 490.871 323.864C487.769 322.772 484.352 322.227 480.619 322.227C474.071 322.227 468.299 323.892 463.302 327.224C458.363 330.497 454.515 335.264 451.758 341.525C449.059 347.727 447.709 355.309 447.709 364.268C447.709 373.4 449.087 381.097 451.844 387.357C454.601 393.56 458.449 398.241 463.389 401.399C468.328 404.558 474.043 406.138 480.533 406.138C484.151 406.138 487.511 405.65 490.612 404.673C493.714 403.697 496.47 402.29 498.883 400.452C501.295 398.614 503.305 396.374 504.913 393.732C506.579 391.033 507.699 387.96 508.273 384.514H535.669C534.98 390.43 533.228 396.116 530.414 401.572C527.657 407.028 523.895 411.91 519.128 416.217C514.361 420.468 508.704 423.856 502.156 426.383C495.609 428.853 488.229 430.088 480.016 430.088ZM563.889 428.365H534.856L579.138 300H614.115L658.31 428.365H629.364L597.143 329.291H596.109L563.889 428.365ZM562.166 377.88H630.828V399.073H562.166V377.88ZM707.12 430.174C696.782 430.174 687.765 428.594 680.068 425.436C672.43 422.277 666.457 417.567 662.149 411.307C657.899 405.047 655.659 397.293 655.429 388.046H681.619C681.964 392.296 683.227 395.886 685.41 398.815C687.592 401.687 690.521 403.84 694.197 405.276C697.873 406.712 702.094 407.43 706.861 407.43C711.456 407.43 715.448 406.77 718.836 405.449C722.282 404.128 724.924 402.29 726.762 399.935C728.658 397.523 729.605 394.737 729.605 391.578C729.605 388.707 728.744 386.294 727.021 384.342C725.355 382.389 722.886 380.723 719.612 379.345C716.395 377.966 712.461 376.732 707.809 375.64L693.766 372.194C682.969 369.61 674.44 365.503 668.18 359.875C661.919 354.189 658.789 346.607 658.789 337.131C658.789 329.377 660.886 322.6 665.078 316.799C669.328 310.941 675.1 306.404 682.395 303.187C689.746 299.914 698.103 298.277 707.464 298.277C716.999 298.277 725.298 299.914 732.362 303.187C739.484 306.461 745.026 310.998 748.989 316.799C753.01 322.6 755.077 329.291 755.192 336.872H729.088C728.629 331.876 726.475 327.97 722.627 325.156C718.836 322.342 713.696 320.935 707.206 320.935C702.841 320.935 699.108 321.566 696.006 322.83C692.962 324.036 690.636 325.73 689.028 327.913C687.42 330.095 686.616 332.594 686.616 335.408C686.616 338.394 687.535 340.922 689.373 342.989C691.211 344.999 693.652 346.665 696.696 347.986C699.797 349.249 703.186 350.312 706.861 351.173L718.32 354.016C723.891 355.28 729.031 356.974 733.741 359.099C738.45 361.167 742.528 363.723 745.974 366.767C749.477 369.811 752.177 373.4 754.072 377.536C755.967 381.613 756.915 386.323 756.915 391.664C756.915 399.533 754.934 406.368 750.971 412.168C747.065 417.912 741.408 422.363 733.999 425.522C726.59 428.623 717.63 430.174 707.12 430.174ZM759.117 322.399V300H864.566V322.399H825.281V428.365H798.488V322.399H759.117Z" fill="white"/>
</svg>
